<?xml version="1.0" encoding="utf-8"?>
<!-- Generator: Adobe Illustrator 21.0.0, SVG Export Plug-In . SVG Version: 6.00 Build 0)  -->
<svg version="1.1" id="Layer_1" xmlns="http://www.w3.org/2000/svg" xmlns:xlink="http://www.w3.org/1999/xlink" x="0px" y="0px"
	 viewBox="0 0 305 66" style="enable-background:new 0 0 305 66;" xml:space="preserve">
<style type="text/css">
	.st0{fill:#D7D7D7;}
</style>
<g>
	<path d="M34.7,23.6h4.1v2.3l2.5-2.1c1.4,0.8,3.3,2.2,5.5,4l-2.2,2.4c-0.2-0.2-0.6-0.5-1.2-1c-0.3-0.2-0.4-0.4-0.5-0.5
		c-1,0.7-2.1,1.4-3.2,1.9h4.8v11.5h-3.8v-0.4H34v0.4h-3.8v-7.7c-0.4,0.2-1,0.3-1.6,0.5l-1.5-3.5c2.2-0.5,4.7-1.4,7.6-2.5V23.6z
		 M34.6,25.6c-1.2,1.9-2.7,3.5-4.4,4.6l-2.6-2.6c1.6-1.2,2.9-2.5,4-4L34.6,25.6L34.6,25.6z M34,33.1v0.5h6.6v-0.5H34z M34,35.9v0.5
		h6.6v-0.5H34z M34,38.6v0.5h6.6v-0.5H34z M38.7,27.4c0.2-0.1,0.4-0.2,0.6-0.4c0.2-0.1,0.3-0.2,0.4-0.2c-0.2-0.2-0.5-0.5-1-0.8V27.4
		z M56.1,40.7h-3.8v0.9H49V24.8h7.1V40.7z M53,28.4h-0.6v2.5H53V28.4z M52.4,34.6v2.6H53v-2.6H52.4z M59.3,30.9
		c0.9,1,1.7,2.3,2.6,3.8v-4.2h-5.4v-3.9h5.4v-3h3.9v3h2v3.9h-2v9.5c0.6,1.7-1.8,2.5-7.2,2.3l-1.2-3.5c2.1,0,3.3,0,3.8-0.1
		c0.5-0.1,0.8-0.2,0.7-0.5v-2.7l-2.7,1.7c-1-1.8-2-3.3-2.9-4.5L59.3,30.9L59.3,30.9z"/>
</g>
<g>
	<path d="M254.7,24.6h4.1v2.3l2.5-2.1c1.4,0.8,3.3,2.2,5.5,4l-2.2,2.4c-0.2-0.2-0.6-0.5-1.2-1c-0.3-0.2-0.4-0.4-0.5-0.5
		c-1,0.7-2.1,1.4-3.2,1.9h4.8v11.5h-3.8v-0.4H254v0.4h-3.8v-7.7c-0.4,0.2-1,0.3-1.6,0.5l-1.5-3.5c2.2-0.5,4.7-1.4,7.6-2.5V24.6z
		 M254.6,26.6c-1.2,1.9-2.7,3.5-4.4,4.6l-2.6-2.6c1.6-1.2,2.9-2.5,4-4L254.6,26.6L254.6,26.6z M254,34.1v0.5h6.6v-0.5H254z
		 M254,36.9v0.5h6.6v-0.5H254z M254,39.6v0.5h6.6v-0.5H254z M258.7,28.4c0.2-0.1,0.4-0.2,0.6-0.4c0.2-0.1,0.3-0.2,0.4-0.2
		c-0.2-0.2-0.5-0.5-1-0.8V28.4z M268.4,39.3c0.8-3.1,1.3-6,1.4-8.5l3.4,1.1c-0.2,4.1-0.7,7.2-1.5,9.1L268.4,39.3L268.4,39.3z
		 M275.8,24.2c2.6,0.6,4.9,1.5,7,2.7l-2.3,3.3c-2.4-1.3-4.7-2.2-7-2.7L275.8,24.2z M273.6,29.3h3.9v8.3c-0.1,1.4,0.2,2,0.7,1.8
		c0.9,0.3,1.3-1.1,1.3-4.1l3.7,1.4c-0.7-1.8-1.6-3.4-2.6-4.8l3.3-1.7c1.3,1.4,2.6,4.2,3.8,8.3l-3.4,2c-0.3-1.5-0.6-2.5-0.9-3
		c-0.3,4-1.8,6-4.4,6H277c-2.1-0.1-3.2-1.1-3.4-2.9V29.3z"/>
</g>
<g>
	<path class="st0" d="M44.6,59c-0.4,0-0.9,0-1.2,0c-0.4,0-0.5,0-0.5,0v0c-2.2,0-5.3,0-9.7,0c-4.5,0-8.9-1.5-13-4.5
		c-0.3-0.2-0.8-0.3-1.1-0.1c-2.8,1.6-5.4,2.7-8,3.3c-1.8,0.4-3.6,0.7-5.4,1l-1.1,0.2C4.2,59,3.8,59,3.4,59c-0.1,0-0.3,0-0.4,0H0.2
		l2.1-1.8c0.4-0.3,0.8-0.6,1.2-0.9c0.8-0.6,1.6-1.3,2.3-2c2.6-2.7,3.9-6.1,3.9-9.9c0-1.7,0-3.4,0-5.1c0-2.4,0-4.9,0-7.3
		C9.9,25.8,12,20.5,16.1,16c3.7-4,8.3-6.5,13.6-7.6C31,8.2,32.3,8,33.7,8c4,0,7.1,0,9.4,0v0c0,0,0.2,0,0.4,0c0.1,0,0.2,0,0.3,0
		l13.8,0c0,0,0,0,0,0c4.8,0,11.9,1.3,15.7,3.8c6.4,4.2,10.2,10.1,11.4,17.5c1.2,7.8-0.6,14.7-5.4,20.6c-4.6,5.7-13.2,7.9-16.7,8.6
		C61,58.8,58.7,59,57.2,59c-4.1,0-7.1,0-9.2,0v0c0,0-0.1,0-0.1,0c-0.7,0-1.2,0-1.8,0C45.7,59,45.2,59,44.6,59z M19.6,52.2
		c0.6,0,1.3,0.2,1.8,0.6c3.7,2.8,7.7,4.2,11.8,4.2l14.2,0c0.1,0,0.2,0,0.3,0l9.6,0c1.3,0,3.6-0.2,4.9-0.4c6.8-1.4,12.6-4.3,15.5-7.9
		c4.4-5.5,6.1-11.9,5-19c-1-6.9-4.6-12.3-10.5-16.2c-3.3-2.2-10-3.5-14.6-3.5c0,0,0,0,0,0c-4,0-7.2,0-9.5,0v0c0,0-0.2,0-0.4,0
		c-0.1,0-0.2,0-0.3,0l-13.7,0c-1.2,0-2.4,0.1-3.5,0.4c-4.9,1-9.2,3.4-12.6,7c-3.8,4.1-5.7,9-5.8,14.6c0,2.4,0,4.9,0,7.2
		c0,1.7,0,3.4,0,5.2c0,4.3-1.5,8.1-4.5,11.2c-0.3,0.3-0.7,0.7-1,1c1.5-0.3,3-0.5,4.5-0.9c2.3-0.6,4.8-1.6,7.4-3.1
		C18.6,52.4,19.1,52.2,19.6,52.2z"/>
</g>
<g>
	<path class="st0" d="M153.6,59c-0.4,0-0.9,0-1.2,0c-0.4,0-0.5,0-0.5,0v0c-2.2,0-5.3,0-9.7,0c-4.5,0-8.9-1.5-13-4.5
		c-0.3-0.2-0.8-0.3-1.1-0.1c-2.8,1.6-5.4,2.7-8,3.3c-1.8,0.4-3.6,0.7-5.4,1l-1.1,0.2c-0.4,0.1-0.9,0.1-1.2,0c-0.1,0-0.3,0-0.4,0
		h-2.8l2.1-1.8c0.4-0.3,0.8-0.6,1.2-0.9c0.8-0.6,1.6-1.3,2.3-2c2.6-2.7,3.9-6.1,3.9-9.9c0-1.7,0-3.4,0-5.1c0-2.4,0-4.9,0-7.3
		c0.1-6.2,2.3-11.5,6.4-15.9c3.7-4,8.3-6.5,13.6-7.6c1.3-0.3,2.6-0.4,4-0.4c4,0,7.1,0,9.4,0v0c0,0,0.2,0,0.4,0c0.1,0,0.2,0,0.3,0
		l13.8,0c0,0,0,0,0,0c4.8,0,11.9,1.3,15.7,3.8c6.4,4.2,10.2,10.1,11.4,17.5c1.2,7.8-0.6,14.7-5.4,20.6c-4.6,5.7-13.2,7.9-16.7,8.6
		c-1.5,0.3-3.9,0.5-5.3,0.5c-4.1,0-7.1,0-9.2,0v0c0,0-0.1,0-0.1,0c-0.7,0-1.2,0-1.8,0C154.7,59,154.2,59,153.6,59z M128.6,52.2
		c0.6,0,1.3,0.2,1.8,0.6c3.7,2.8,7.7,4.2,11.8,4.2l14.2,0c0.1,0,0.2,0,0.3,0l9.6,0c1.3,0,3.6-0.2,4.9-0.4c6.8-1.4,12.6-4.3,15.5-7.9
		c4.4-5.5,6.1-11.9,5-19c-1-6.9-4.6-12.3-10.5-16.2c-3.3-2.2-10-3.5-14.6-3.5c0,0,0,0,0,0c-4,0-7.2,0-9.5,0v0c0,0-0.2,0-0.4,0
		c-0.1,0-0.2,0-0.3,0l-13.7,0c-1.2,0-2.4,0.1-3.5,0.4c-4.9,1-9.2,3.4-12.6,7c-3.8,4.1-5.7,9-5.8,14.6c0,2.4,0,4.9,0,7.2
		c0,1.7,0,3.4,0,5.2c0,4.3-1.5,8.1-4.5,11.2c-0.3,0.3-0.7,0.7-1,1c1.5-0.3,3-0.5,4.5-0.9c2.3-0.6,4.8-1.6,7.4-3.1
		C127.6,52.4,128.1,52.2,128.6,52.2z"/>
</g>
<g>
	<path class="st0" d="M264.6,59c-0.4,0-0.9,0-1.2,0c-0.4,0-0.5,0-0.5,0l0,0c-2.2,0-5.3,0-9.7,0c-4.5,0-8.9-1.5-13-4.5
		c-0.3-0.2-0.8-0.2-1.1-0.1c-2.8,1.6-5.4,2.7-8,3.3c-1.8,0.4-3.6,0.7-5.4,1l-1.1,0.2c-0.4,0.1-0.9,0.1-1.2,0c-0.1,0-0.3,0-0.4,0
		h-2.8l2.1-1.8c0.4-0.3,0.8-0.6,1.2-0.9c0.8-0.6,1.6-1.3,2.3-2c2.6-2.7,3.9-6.1,3.9-9.9c0-1.7,0-3.4,0-5.1c0-2.4,0-4.9,0-7.3
		c0.1-6.2,2.3-11.5,6.4-15.9c3.7-4,8.3-6.5,13.6-7.6c1.3-0.3,2.6-0.4,4-0.4c4,0,7.1,0,9.4,0v0c0,0,0.2,0,0.4,0c0.1,0,0.2,0,0.3,0
		l13.8,0c0,0,0,0,0,0c4.8,0,11.9,1.3,15.7,3.8c6.4,4.2,10.2,10.1,11.4,17.5c1.2,7.8-0.6,14.7-5.4,20.6c-4.6,5.7-13.2,7.9-16.7,8.6
		c-1.5,0.3-3.9,0.5-5.3,0.5c-4.1,0-7.1,0-9.2,0v0c0,0-0.1,0-0.1,0c-0.7,0-1.2,0-1.8,0C265.7,59,265.2,59,264.6,59z M239.6,52.2
		c0.6,0,1.3,0.2,1.8,0.6c3.7,2.8,7.7,4.2,11.8,4.2l14.2,0c0.1,0,0.2,0,0.3,0l9.6,0c1.3,0,3.6-0.2,4.9-0.4c6.8-1.4,12.6-4.3,15.5-7.9
		c4.4-5.5,6.1-11.9,5-19c-1-6.9-4.6-12.3-10.5-16.2c-3.3-2.2-10-3.5-14.6-3.5c0,0,0,0,0,0c-4,0-7.2,0-9.5,0v0c0,0-0.2,0-0.4,0
		c-0.1,0-0.2,0-0.3,0l-13.7,0c-1.2,0-2.4,0.1-3.5,0.4c-4.9,1-9.2,3.4-12.6,7c-3.8,4.1-5.7,9-5.8,14.6c0,2.4,0,4.9,0,7.3
		c0,1.7,0,3.4,0,5.2c0,4.3-1.5,8.1-4.5,11.2c-0.3,0.3-0.7,0.7-1,1c1.5-0.3,3-0.5,4.5-0.9c2.3-0.6,4.8-1.6,7.4-3.1
		C238.6,52.4,239.1,52.2,239.6,52.2z"/>
</g>
<g>
	<path d="M143.7,23.6h4.1v2.3l2.5-2.1c1.4,0.8,3.3,2.2,5.5,4l-2.2,2.4c-0.2-0.2-0.6-0.5-1.2-1c-0.3-0.2-0.4-0.4-0.5-0.5
		c-1,0.7-2.1,1.4-3.2,1.9h4.8v11.5h-3.8v-0.4H143v0.4h-3.8v-7.7c-0.4,0.2-1,0.3-1.6,0.5l-1.5-3.5c2.2-0.5,4.7-1.4,7.6-2.5V23.6z
		 M143.6,25.6c-1.2,1.9-2.7,3.5-4.4,4.6l-2.6-2.6c1.6-1.2,2.9-2.5,4-4L143.6,25.6L143.6,25.6z M143,33.1v0.5h6.6v-0.5H143z
		 M143,35.9v0.5h6.6v-0.5H143z M143,38.6v0.5h6.6v-0.5H143z M147.7,27.4c0.2-0.1,0.4-0.2,0.6-0.4c0.2-0.1,0.3-0.2,0.4-0.2
		c-0.2-0.2-0.5-0.5-1-0.8V27.4z M164.8,23.4h4.2v3h7v6.7c0.1,4.4-0.3,7-1.2,7.8c-0.5,1-2.5,1.4-5.9,1.3l-1.3-3.8
		c2.3,0.3,3.6,0.1,3.9-0.4c0.5-0.3,0.7-1.8,0.6-4.4v-3h-3.4c-0.6,5.7-3.4,9.5-8.2,11.5l-2.8-3.4c4.2-1.4,6.4-4.1,6.6-8.1l-6.1-0.1
		v-4.1h6.5V23.4z"/>
</g>
</svg>
