<?xml version="1.0" encoding="utf-8"?>
<!-- Generator: Adobe Illustrator 21.0.0, SVG Export Plug-In . SVG Version: 6.00 Build 0)  -->
<svg version="1.1" id="Layer_1" xmlns="http://www.w3.org/2000/svg" xmlns:xlink="http://www.w3.org/1999/xlink" x="0px" y="0px"
	 viewBox="0 0 143 34" style="enable-background:new 0 0 143 34;" xml:space="preserve">
<style type="text/css">
	.st0{clip-path:url(#SVGID_2_);}
	.st1{clip-path:url(#SVGID_4_);}
	.st2{fill:#FFCD00;}
	.st3{fill:none;}
</style>
<g>
	<defs>
		<rect id="SVGID_1_" x="2" y="1.6" width="89" height="12"/>
	</defs>
	<clipPath id="SVGID_2_">
		<use xlink:href="#SVGID_1_"  style="overflow:visible;"/>
	</clipPath>
	<g class="st0">
		<defs>
			<rect id="SVGID_3_" x="-737" y="-911" width="1440" height="3439"/>
		</defs>
		<clipPath id="SVGID_4_">
			<use xlink:href="#SVGID_3_"  style="overflow:visible;"/>
		</clipPath>
		<g class="st1">
			<rect x="-3" y="-3.4" class="st2" width="99" height="22"/>
		</g>
	</g>
</g>
<g>
	<path d="M9.4,22.3c0-0.7-0.3-1.4-1.2-1.4c-0.6,0-0.9,0.2-1.2,0.5c-0.4,0.4-0.7,1.2-1.1,3.1c-0.1,0.7-0.3,1.7-0.3,2.4
		c0,0.8,0.5,1.3,1.2,1.3c0.9,0,1.4-0.7,1.7-1.4h2.9c-0.9,2.6-2.7,3.8-4.8,3.8c-2.5,0-3.8-1.7-3.8-3.5c0-0.5,0.1-1.4,0.4-2.6
		c0.4-2.1,0.7-3.6,1.8-4.7c1.1-1.1,2.3-1.4,3.5-1.4c2.6,0,3.8,1.7,3.8,3.8H9.4z"/>
	<path d="M18.7,30.6l-0.2-1.9h-3.6L14,30.6h-3l6.6-12.1h2.2l1.8,12.1H18.7z M17.9,22.9l-1.8,3.6h2.2L17.9,22.9z"/>
	<path d="M30.3,25.7l1.6,4.9h-3.1l-1.3-4.6h-1.1l-0.9,4.6h-2.8l2.4-12.1h4.3c2.5,0,3.5,1.6,3.5,3.5C32.9,23.4,32.1,25,30.3,25.7z
		 M28.9,21.1h-1.5l-0.5,2.6h1.5c1.3,0,1.7-1,1.7-1.5C30,21.5,29.6,21.1,28.9,21.1z"/>
	<path d="M42.3,30.6h-2.3l-2.6-6.3l-1.3,6.3h-2.8l2.4-12.1h2.3l2.6,6.3l1.3-6.3h2.8L42.3,30.6z"/>
	<path d="M54.3,21.1h-5l-0.5,2.3h4.3l-0.5,2.5h-4.3l-0.5,2.4H53l-0.5,2.5h-7.9L47,18.6h7.8L54.3,21.1z"/>
	<path d="M64.8,30.6h-2.3l-0.6-6.1l-3.1,6.1h-2.3l-0.8-12.1h2.9l0.2,6.5l3.2-6.5h2l0.6,6.5l2.8-6.5h3L64.8,30.6z"/>
	<path d="M76.9,21.7c-0.5-0.6-1.2-0.8-2-0.8c-1.2,0-1.8,0.7-1.8,1.3c0,0.6,0.5,0.8,1,0.9l0.9,0.2c2.1,0.5,2.8,1.5,2.8,3.3
		c0,2.9-2.4,4.1-5,4.1c-2,0-3.2-0.5-4.3-1.7l2-1.8c0.6,0.7,1.4,0.9,2.5,0.9c1.1,0,1.9-0.6,1.9-1.3c0-0.6-0.4-0.9-1-1l-0.9-0.2
		c-2.4-0.6-2.8-2-2.8-3c0-2.6,2-4.2,4.9-4.2c1.5,0,2.8,0.5,3.6,1.5L76.9,21.7z"/>
	<path d="M85.8,22.3c0-0.7-0.3-1.4-1.2-1.4c-0.6,0-0.9,0.2-1.2,0.5c-0.4,0.4-0.7,1.2-1.1,3.1C82.2,25.3,82,26.4,82,27
		c0,0.8,0.5,1.3,1.2,1.3c0.9,0,1.4-0.7,1.7-1.4h2.9c-0.9,2.6-2.7,3.8-4.8,3.8c-2.5,0-3.8-1.7-3.8-3.5c0-0.5,0.1-1.4,0.4-2.6
		c0.4-2.1,0.7-3.6,1.8-4.7c1.1-1.1,2.3-1.4,3.5-1.4c2.6,0,3.8,1.7,3.8,3.8H85.8z"/>
	<path d="M97.6,30.6h-2.3l-2.6-6.3l-1.3,6.3h-2.8L91,18.6h2.3l2.6,6.3l1.3-6.3h2.8L97.6,30.6z"/>
	<path d="M102.5,30.6h-2.9l0.6-3h2.9L102.5,30.6z"/>
	<path d="M111.7,22.3c0-0.7-0.3-1.4-1.2-1.4c-0.6,0-0.9,0.2-1.2,0.5c-0.4,0.4-0.7,1.2-1.1,3.1c-0.1,0.7-0.3,1.7-0.3,2.4
		c0,0.8,0.5,1.3,1.2,1.3c0.9,0,1.4-0.7,1.7-1.4h2.9c-0.9,2.6-2.7,3.8-4.8,3.8c-2.5,0-3.8-1.7-3.8-3.5c0-0.5,0.1-1.4,0.4-2.6
		c0.4-2.1,0.7-3.6,1.8-4.7c1.1-1.1,2.3-1.4,3.5-1.4c2.6,0,3.8,1.7,3.8,3.8H111.7z"/>
	<path d="M124.1,24.6c-0.4,2.1-0.7,3.6-1.9,4.7c-0.9,0.9-2.3,1.4-3.4,1.4c-2.5,0-3.8-1.7-3.8-3.5c0-0.5,0.1-1.4,0.4-2.6
		c0.4-2.1,0.7-3.6,1.9-4.7c0.9-0.9,2.3-1.4,3.4-1.4c2.5,0,3.8,1.7,3.8,3.5C124.4,22.5,124.3,23.4,124.1,24.6z M120.4,20.9
		c-0.5,0-0.9,0.2-1.2,0.6c-0.4,0.4-0.6,1-1,3.1c-0.1,0.7-0.3,1.7-0.3,2.4c0,0.8,0.5,1.3,1.2,1.3c0.5,0,0.9-0.2,1.2-0.6
		c0.4-0.4,0.6-1,1-3.1c0.1-0.7,0.3-1.7,0.3-2.4C121.6,21.4,121.1,20.9,120.4,20.9z"/>
	<path d="M135.5,30.6h-2.8l1.2-5.9l-2.2,3h-1.8l-1.1-3l-1.2,5.9h-2.8l2.4-12.1h2.6l1.5,5.3l3.8-5.3h2.8L135.5,30.6z"/>
</g>
<g>
	<path d="M13.7,11h-2l0.1-0.6c-0.4,0.4-0.9,0.7-1.6,0.7c-1.5,0-1.9-1.1-1.9-1.9c0-0.5,0.1-1.1,0.2-1.8C8.9,5.9,9.2,5,9.7,4.5
		c0.5-0.5,1.1-0.7,1.7-0.7c0.6,0,1.2,0.2,1.5,0.6l0.6-2.9h2.1L13.7,11z M11.9,5.7c-0.8,0-1,0.6-1.2,1.8c-0.1,0.3-0.1,0.8-0.1,1.1
		c0,0.2,0,0.7,0.6,0.7c0.8,0,1-0.6,1.2-1.8c0.1-0.3,0.1-0.8,0.1-1.1C12.5,6.2,12.4,5.7,11.9,5.7z"/>
</g>
<g>
	<path d="M21.5,8.1h-4.1c0,0.1,0,0.2,0,0.3c0,0.6,0.3,0.9,1,0.9c0.6,0,1.1-0.2,1.5-0.7l1,1.3c-0.7,0.7-1.7,1-2.8,1
		c-1.1,0-2.7-0.5-2.7-2.5c0-2.5,1.2-4.7,3.6-4.7c1.5,0,2.6,0.9,2.6,2.6C21.8,7,21.7,7.6,21.5,8.1z M19,5.5c-0.5,0-1,0.3-1.3,1.2h2.1
		c0-0.1,0-0.3,0-0.3C19.8,5.9,19.6,5.5,19,5.5z"/>
</g>
<g>
	<path d="M25.1,11h-1.6l-1.1-7.1h2l0.4,3.9l1.9-3.9H29L25.1,11z"/>
	<path d="M34.7,8.1h-4.1c0,0.1,0,0.2,0,0.3c0,0.6,0.3,0.9,1,0.9c0.6,0,1.1-0.2,1.5-0.7l1,1.3c-0.7,0.7-1.7,1-2.8,1
		c-1.1,0-2.7-0.5-2.7-2.5c0-2.5,1.2-4.7,3.6-4.7c1.5,0,2.6,0.9,2.6,2.6C34.9,7,34.8,7.6,34.7,8.1z M32.1,5.5c-0.5,0-1,0.3-1.3,1.2
		h2.1c0-0.1,0-0.3,0-0.3C33,5.9,32.7,5.5,32.1,5.5z"/>
</g>
<g>
	<path d="M37.8,8.8c0,0.1,0,0.1,0,0.2c0,0.2,0.1,0.3,0.4,0.3h0.8L38.5,11h-1c-1.2,0-1.8-0.7-1.8-1.6c0-0.2,0-0.4,0.1-0.6l1.4-7.1
		h2.1L37.8,8.8z"/>
</g>
<g>
	<path d="M45.6,7.5c-0.3,1.4-0.6,2.1-1.2,2.8c-0.5,0.5-1.3,0.8-2.2,0.8c-1.2,0-2.5-0.8-2.5-2.3c0-0.4,0.1-0.9,0.1-1.3
		c0.3-1.4,0.6-2.1,1.2-2.8c0.5-0.5,1.3-0.8,2.2-0.8c1.2,0,2.5,0.8,2.5,2.3C45.8,6.6,45.7,7.1,45.6,7.5z M43.1,5.7
		c-0.3,0-0.5,0.1-0.6,0.2c-0.3,0.3-0.4,0.8-0.6,1.5c-0.1,0.7-0.1,0.9-0.1,1c0,0.5,0.2,0.7,0.6,0.7c0.3,0,0.5-0.1,0.6-0.2
		c0.3-0.3,0.4-0.8,0.6-1.5c0.1-0.7,0.1-0.9,0.1-1C43.7,6,43.5,5.7,43.1,5.7z"/>
	<path d="M52.7,7.5c-0.3,1.6-0.6,2.4-1.1,2.9c-0.5,0.5-1.1,0.7-1.7,0.7c-0.6,0-1.2-0.2-1.5-0.6l-0.6,2.9h-2.1l1.9-9.4h2l-0.1,0.6
		c0.4-0.4,0.9-0.7,1.6-0.7C52.6,3.8,53,5,53,5.7C53,6,53,6.3,52.7,7.5z M50.2,5.7c-0.8,0-1,0.6-1.2,1.8c-0.1,0.3-0.1,0.8-0.1,1.1
		c0,0.2,0,0.7,0.6,0.7c0.8,0,1-0.6,1.2-1.8c0.1-0.3,0.1-0.8,0.1-1.1C50.8,6.2,50.8,5.7,50.2,5.7z"/>
	<path d="M59.7,8.1h-4.1c0,0.1,0,0.2,0,0.3c0,0.6,0.3,0.9,1,0.9c0.6,0,1.1-0.2,1.5-0.7l1,1.3c-0.7,0.7-1.7,1-2.8,1
		c-1.1,0-2.7-0.5-2.7-2.5c0-2.5,1.2-4.7,3.6-4.7c1.5,0,2.6,0.9,2.6,2.6C59.9,7,59.8,7.6,59.7,8.1z M57.2,5.5c-0.5,0-1,0.3-1.3,1.2
		h2.1c0-0.1,0-0.3,0-0.3C58,5.9,57.7,5.5,57.2,5.5z"/>
	<path d="M65.9,11h-2l0.1-0.6c-0.4,0.4-0.9,0.7-1.6,0.7c-1.5,0-1.9-1.1-1.9-1.9c0-0.5,0.1-1.1,0.2-1.8c0.3-1.6,0.6-2.4,1.1-2.9
		c0.5-0.5,1.1-0.7,1.7-0.7c0.6,0,1.2,0.2,1.5,0.6l0.6-2.9h2.1L65.9,11z M64.1,5.7c-0.8,0-1,0.6-1.2,1.8c-0.1,0.3-0.1,0.8-0.1,1.1
		c0,0.2,0,0.7,0.6,0.7c0.8,0,1-0.6,1.2-1.8c0.1-0.3,0.1-0.8,0.1-1.1C64.7,6.2,64.7,5.7,64.1,5.7z"/>
</g>
<g>
	<path d="M76.8,7.5c-0.2,1.4-0.5,2.3-1.1,3c-0.4,0.4-1.1,0.6-1.7,0.6c-0.9,0-1.3-0.3-1.6-0.7L72.2,11h-2l1.9-9.4h2.1l-0.6,2.8
		c0.3-0.4,0.9-0.6,1.5-0.6c0.9,0,1.9,0.5,1.9,2C77,6.1,76.9,6.7,76.8,7.5z M74.2,5.7c-0.8,0-1,0.6-1.2,1.8c-0.1,0.3-0.1,0.8-0.1,1.1
		c0,0.2,0,0.7,0.6,0.7c0.8,0,1-0.6,1.2-1.8c0.1-0.3,0.1-0.8,0.1-1.1C74.8,6.2,74.8,5.7,74.2,5.7z"/>
</g>
<g>
	<path d="M79.8,11.8c-0.1,0.2-0.3,0.6-0.6,0.8c-0.5,0.5-1.1,0.7-1.8,0.7h-0.8l0.4-1.9h0.4c0.4,0,0.6-0.2,0.8-0.6l0.3-0.6l-1-6.4h2
		L80,7.9l1.9-3.9h2.2L79.8,11.8z"/>
</g>
<rect x="-737" y="-911" class="st3" width="1440" height="3439"/>
</svg>
