<?xml version="1.0" encoding="utf-8"?>
<!-- Generator: Adobe Illustrator 21.0.0, SVG Export Plug-In . SVG Version: 6.00 Build 0)  -->
<svg version="1.1" id="Layer_1" xmlns="http://www.w3.org/2000/svg" xmlns:xlink="http://www.w3.org/1999/xlink" x="0px" y="0px"
	 viewBox="0 0 566 239" style="enable-background:new 0 0 566 239;" xml:space="preserve">
<style type="text/css">
	.st0{clip-path:url(#SVGID_2_);}
	.st1{clip-path:url(#SVGID_4_);}
	.st2{clip-path:url(#SVGID_6_);}
	.st3{clip-path:url(#SVGID_8_);}
	.st4{clip-path:url(#SVGID_10_);}
	.st5{clip-path:url(#SVGID_12_);}
	.st6{clip-path:url(#SVGID_14_);}
	.st7{clip-path:url(#SVGID_16_);}
	.st8{clip-path:url(#SVGID_18_);}
	.st9{clip-path:url(#SVGID_20_);}
	.st10{clip-path:url(#SVGID_22_);}
	.st11{clip-path:url(#SVGID_24_);}
	.st12{clip-path:url(#SVGID_26_);}
	.st13{clip-path:url(#SVGID_28_);}
	.st14{clip-path:url(#SVGID_30_);}
	.st15{clip-path:url(#SVGID_32_);}
	.st16{clip-path:url(#SVGID_34_);}
	.st17{clip-path:url(#SVGID_36_);}
	.st18{clip-path:url(#SVGID_38_);}
	.st19{clip-path:url(#SVGID_40_);}
	.st20{clip-path:url(#SVGID_42_);}
	.st21{clip-path:url(#SVGID_44_);}
	.st22{clip-path:url(#SVGID_46_);}
	.st23{clip-path:url(#SVGID_48_);}
	.st24{clip-path:url(#SVGID_50_);}
	.st25{clip-path:url(#SVGID_52_);}
	.st26{clip-path:url(#SVGID_54_);}
	.st27{clip-path:url(#SVGID_56_);}
	.st28{clip-path:url(#SVGID_58_);}
	.st29{clip-path:url(#SVGID_60_);}
	.st30{clip-path:url(#SVGID_62_);}
	.st31{clip-path:url(#SVGID_64_);}
	.st32{clip-path:url(#SVGID_66_);}
	.st33{clip-path:url(#SVGID_68_);}
	.st34{clip-path:url(#SVGID_70_);}
	.st35{clip-path:url(#SVGID_72_);}
	.st36{clip-path:url(#SVGID_74_);}
	.st37{clip-path:url(#SVGID_76_);}
	.st38{clip-path:url(#SVGID_78_);}
	.st39{clip-path:url(#SVGID_80_);}
	.st40{clip-path:url(#SVGID_82_);}
	.st41{clip-path:url(#SVGID_84_);}
	.st42{clip-path:url(#SVGID_86_);}
	.st43{clip-path:url(#SVGID_88_);}
	.st44{clip-path:url(#SVGID_90_);}
	.st45{clip-path:url(#SVGID_92_);}
	.st46{clip-path:url(#SVGID_94_);}
	.st47{clip-path:url(#SVGID_96_);}
	.st48{clip-path:url(#SVGID_98_);}
	.st49{clip-path:url(#SVGID_100_);}
	.st50{clip-path:url(#SVGID_102_);}
	.st51{clip-path:url(#SVGID_104_);}
	.st52{clip-path:url(#SVGID_106_);}
	.st53{clip-path:url(#SVGID_108_);}
	.st54{clip-path:url(#SVGID_110_);}
	.st55{clip-path:url(#SVGID_112_);fill:#020202;}
	.st56{clip-path:url(#SVGID_114_);}
	.st57{clip-path:url(#SVGID_116_);}
	.st58{clip-path:url(#SVGID_118_);}
	.st59{clip-path:url(#SVGID_120_);fill:#020202;}
	.st60{clip-path:url(#SVGID_122_);}
	.st61{clip-path:url(#SVGID_124_);}
	.st62{clip-path:url(#SVGID_126_);}
	.st63{clip-path:url(#SVGID_128_);}
	.st64{clip-path:url(#SVGID_130_);}
	.st65{clip-path:url(#SVGID_132_);}
	.st66{clip-path:url(#SVGID_134_);}
	.st67{clip-path:url(#SVGID_136_);}
	.st68{clip-path:url(#SVGID_138_);}
	.st69{clip-path:url(#SVGID_140_);}
	.st70{clip-path:url(#SVGID_142_);}
	.st71{clip-path:url(#SVGID_144_);}
	.st72{clip-path:url(#SVGID_146_);}
	.st73{clip-path:url(#SVGID_148_);}
	.st74{clip-path:url(#SVGID_150_);}
	.st75{clip-path:url(#SVGID_152_);}
	.st76{clip-path:url(#SVGID_154_);}
	.st77{clip-path:url(#SVGID_156_);}
</style>
<g>
	<defs>
		<path id="SVGID_1_" d="M42.2,196.1c2.6-0.4,7-3.9,15.7-11.8c19.1-18,22.6-24.1,23.5-25.8v-0.4H81c-1.3-0.4-4.3-1.8-6.5-3.5
			c-0.4-0.4-1.3-0.9-1.7-1.3l-0.4-0.4l-0.4,0.4c-0.9,0.9-2.6,3.5-6.5,6.1c-1.3,0.9-3,2.6-5.2,4.4c-3.9,3.5-9.6,7.9-14.8,11.8
			c-4.8,4.4-4.8,4.4-8.7,7c-0.9,0.4-2.2,1.3-3.5,1.8c-0.9,0.4-1.7,0.9-2.2,1.3l-0.4,0.4l0.4,0.4c0.9,0.9,1.7,2.2,3.5,3.9
			C38.3,193.4,42.2,196.1,42.2,196.1z"/>
	</defs>
	<clipPath id="SVGID_2_">
		<use xlink:href="#SVGID_1_"  style="overflow:visible;"/>
	</clipPath>
	<g class="st0">
		<defs>
			<rect id="SVGID_3_" x="-633" y="-205" width="1440" height="3439"/>
		</defs>
		<clipPath id="SVGID_4_">
			<use xlink:href="#SVGID_3_"  style="overflow:visible;"/>
		</clipPath>
		<rect x="25.5" y="147.7" class="st1" width="60.9" height="53.4"/>
	</g>
</g>
<g>
	<defs>
		<path id="SVGID_5_" d="M55.3,151.4c0,0-2.6,3.5-12.2,10.1c-0.9,0.4-1.3,0.9-1.7,1.3c-1.7,1.3-3,2.2-3.9,2.2l-0.9-1.8l0.4-0.4
			c0.4,0,3.9-2.2,7-4.4c3-1.8,7.8-6.6,10-8.3l0.4-0.4c0.4,0.4,0.9,0.9,0.9,0.9V151.4z M34.8,156.6l-1.7,0.9l-1.3-2.2l0.9-0.4
			c0.4-0.4,2.6-1.3,5.2-2.6c6.5-3.9,10-6.6,10.9-7.4l0.4-0.4l0.4,0.4c0,0,0,0.4,0.9,0.9h0.4c-0.4,0-6.1,3.9-11.7,7.9
			C35.7,156.2,35.3,156.2,34.8,156.6z M68.8,151.4c-2.2-1.8-6.1-4.8-8.7-9.2c-1.7-3.1-3.5-5.3-5.2-7l-0.9-0.9h1.7h2.2v-11.4
			c-1.7,0.9-4.8,1.3-7.8,1.8c-0.9,0-2.6,0-7.4-0.4h-1.3l-3.5,7.9l2.2,0.4c2.2,0.4,3.9,0.9,5.7,1.3c0.4,0,0.9,0,0.9,0.4
			c0.4,0,0.9,0.4,1.7,0.4h0.4l-2.6,2.2c-3,2.6-4.3,3.5-13.9,9.6c-2.2,1.3-3.9,2.2-6.1,3.1c-0.9,0.4-3.5,1.3-3.5,1.3
			c0.4-2.2,1.3-5.7,2.2-7.9c0-0.9,0.4-2.2,0.4-3.5l-9.6-0.9l7.8-4.8c0,0,0.4,0.9,0.9,1.3c0.4,0.4,0.4,0.9,0.9,0.9l0.4,0.4l0.4,0.4
			c0.4,0.4,1.3,1.3,2.2,2.6c1.7,2.2,3,3.5,3.9,3.9l0.4,0.4h0.4c0.9-0.4,1.7-1.3,3-2.2c3-2.2,4.8-4.4,5.7-5.3l0.4-0.4l-0.4-0.4
			c-0.9-0.4-1.3-0.9-2.2-1.3l-2.2-1.8c-0.4-0.4-1.7-1.3-2.2-2.2c-0.4-0.4-1.7-2.2-1.7-2.2l7-3.5l2.2-1.3c3.5-2.2,5.7-3.9,7-4.8
			l0.4-0.4l-0.9-0.9c-0.9-0.4-1.7-1.3-3-3.1c-0.9-0.9-1.3-1.8-2.2-2.6l-0.4-0.4l-0.4,0.4c-1.3,1.3-3.9,3.1-8.7,5.3
			c-2.6,1.3-4.4,2.2-4.4,2.2l-0.4,0.4l-0.4-0.4c-0.9-1.3-2.2-3.5-2.6-4.8l-0.4-0.9l-0.4,0.4c-0.9,0.9-2.6,2.6-5.7,4.8
			c-1.3,0.9-2.6,2.2-3,2.6h-0.4l1.7,3.1l-0.4,0.4c-0.9,0.4-5.2,3.1-13,6.6c-1.3,0.4-2.2,0.9-3,0.9H0.9l0.4,0.4
			c0.4,1.8,1.3,3.9,2.2,5.7c0.9,1.8,2.6,3.9,3,5.3l0.4,0.4l4.3-2.2c0.4,0,0.9-0.4,0.9-0.4l1.7-0.9l-0.4,1.3
			c-0.4,1.8-0.4,2.6-0.9,3.5v0.4c-0.9,3.1-2.6,5.7-3.5,7.4l-0.9,1.8l1.7,0.9c2.2,0.9,3.5,1.3,4.8,1.3c2.6,0.4,3.5,0.9,5.7,0.9
			l0.4-0.9l1.3-2.2l0.4,0.4c1.7,3.1,3.9,7,6.1,11.8c3,6.1,6.1,9.6,7,11l0.4,0.4v-0.4c2.6-1.3,8.7-5.3,13.9-9.6
			c8.7-7,13-11.4,15.7-14c1.3-0.9,2.2-1.8,2.6-2.6L68.8,151.4z"/>
	</defs>
	<clipPath id="SVGID_6_">
		<use xlink:href="#SVGID_5_"  style="overflow:visible;"/>
	</clipPath>
	<g class="st2">
		<defs>
			<rect id="SVGID_7_" x="-633" y="-205" width="1440" height="3439"/>
		</defs>
		<clipPath id="SVGID_8_">
			<use xlink:href="#SVGID_7_"  style="overflow:visible;"/>
		</clipPath>
		<rect x="-4.1" y="106.1" class="st3" width="77.9" height="77.5"/>
	</g>
</g>
<g>
	<defs>
		<path id="SVGID_9_" d="M165.4,56.3c-0.4,0,0,0-0.9,0.4c-0.9,0.4-2.2,1.3-3.5,2.2c-0.4,0.4-1.8,0.9-2.6,1.3c-0.4,0-0.9,0-0.9,0.4
			s0.9,2.2,0.9,2.2l7,18.8c0,0,3.9-1.3,4.8-1.7c1.3,0,3.9-1.3,3.9-1.3l-7.9-20.5C166.7,58.5,165.8,56.8,165.4,56.3z"/>
	</defs>
	<clipPath id="SVGID_10_">
		<use xlink:href="#SVGID_9_"  style="overflow:visible;"/>
	</clipPath>
	<g class="st4">
		<defs>
			<rect id="SVGID_11_" x="-633" y="-205" width="1440" height="3439"/>
		</defs>
		<clipPath id="SVGID_12_">
			<use xlink:href="#SVGID_11_"  style="overflow:visible;"/>
		</clipPath>
		<rect x="152.5" y="51.3" class="st5" width="26.6" height="35.3"/>
	</g>
</g>
<g>
	<defs>
		<path id="SVGID_13_" d="M175.9,42.4c-0.9,0.4-3.1,1.7-7,3.5c-0.9,0.4-3.1,0.9-3.9,1.3L176.8,79c0.4,0.9,0.4,1.7,0.4,2.6
			c0,0.4-0.9,1.7-0.9,2.2c-0.4,0.4-0.9,1.3-1.3,1.7l0,0c0,0,0,0,0.4,0c2.2,0,6.6-0.4,7.4-0.9c2.6-0.4,5.7-0.9,7.9-1.3
			c0.9,0,1.3-0.9,0.9-1.7L175.9,42.4z"/>
	</defs>
	<clipPath id="SVGID_14_">
		<use xlink:href="#SVGID_13_"  style="overflow:visible;"/>
	</clipPath>
	<g class="st6">
		<defs>
			<rect id="SVGID_15_" x="-633" y="-205" width="1440" height="3439"/>
		</defs>
		<clipPath id="SVGID_16_">
			<use xlink:href="#SVGID_15_"  style="overflow:visible;"/>
		</clipPath>
		<rect x="159.9" y="37.4" class="st7" width="36.9" height="53.2"/>
	</g>
</g>
<g>
	<defs>
		<path id="SVGID_17_" d="M178.1,47.6l-2.2-5.7L178.1,47.6z"/>
	</defs>
	<clipPath id="SVGID_18_">
		<use xlink:href="#SVGID_17_"  style="overflow:visible;"/>
	</clipPath>
	<g class="st8">
		<defs>
			<rect id="SVGID_19_" x="-633" y="-205" width="1440" height="3439"/>
		</defs>
		<clipPath id="SVGID_20_">
			<use xlink:href="#SVGID_19_"  style="overflow:visible;"/>
		</clipPath>
		<rect x="170.9" y="36.9" class="st9" width="12.2" height="15.7"/>
	</g>
</g>
<g>
	<defs>
		<path id="SVGID_21_" d="M191.2,83.4C191.7,83.4,191.7,83.4,191.2,83.4C191.7,83.4,191.7,83.4,191.2,83.4z"/>
	</defs>
	<clipPath id="SVGID_22_">
		<use xlink:href="#SVGID_21_"  style="overflow:visible;"/>
	</clipPath>
	<g class="st10">
		<defs>
			<rect id="SVGID_23_" x="-633" y="-205" width="1440" height="3439"/>
		</defs>
		<clipPath id="SVGID_24_">
			<use xlink:href="#SVGID_23_"  style="overflow:visible;"/>
		</clipPath>
		<rect x="186.2" y="78.4" class="st11" width="10.3" height="10"/>
	</g>
</g>
<g>
	<defs>
		<path id="SVGID_25_" d="M164.9,46.7h-0.4H164.9z"/>
	</defs>
	<clipPath id="SVGID_26_">
		<use xlink:href="#SVGID_25_"  style="overflow:visible;"/>
	</clipPath>
	<g class="st12">
		<defs>
			<rect id="SVGID_27_" x="-633" y="-205" width="1440" height="3439"/>
		</defs>
		<clipPath id="SVGID_28_">
			<use xlink:href="#SVGID_27_"  style="overflow:visible;"/>
		</clipPath>
		<rect x="159.5" y="41.7" class="st13" width="10.4" height="10"/>
	</g>
</g>
<g>
	<defs>
		<path id="SVGID_29_" d="M144.8,73.8l-3.5,1.3l-2.6-7.4l3.5-1.3L144.8,73.8z M157.9,79.5c3.1-1.3,3.5-3.9,3.9-4.4
			c-0.4-0.4-0.9,0-2.2-2.2c-0.9-1.3-2.2-3.9-2.6-4.4c-0.4,0.4-0.9,1.3-2.6,2.2v-0.4l-2.6-7.4l-0.4-0.9c2.6-1.3,4.4-2.6,4.4-3.1
			c0-0.4-1.8-1.3-3.1-3.5c-0.4-0.4-0.9-1.3-1.3-1.7c-0.4-1.3-0.9-2.6-1.3-2.6c-0.9,0-2.2,2.6-7,4.4c-2.2,0.4-3.1,1.3-3.5,1.3
			l-8.3,3.1c0,0-3.1,1.3-9.6,3.5c-0.9,0-1.3,0.4-1.8,0.4c-0.4,0-0.9-0.4-1.3,0c-0.4,0.4,1.3,3.9,2.2,6.1c0.9,1.7,2.2,4.8,2.6,5.2
			l3.5-0.9c0.4,0,0.9-0.4,1.8-0.4h0.4l2.2,5.7h-0.4c-0.4,0-1.3,0.4-1.8,0.4c-0.4,0-1.3,0.4-1.8,0.4c-0.9,0-1.3-0.4-1.3-0.4
			c-0.4,0.4,0.9,3.9,1.8,6.1c0.9,1.7,1.3,3.5,1.8,3.9l3.5-0.9c0.4,0,0.4,0,0.9-0.4h0.4c0.9,3.5,1.3,7,1.8,10.5
			c0,0.9,0.9,1.3,1.8,1.3l7.9-1.7c0.4,0,0.9-0.9,0.9-1.3c-0.4-3.9,0-7-1.8-11.8l3.5-1.3l3.5,10c0.4,0.9,0.9,0.9,1.8,0.9l7.4-2.6
			c0.9-0.4,0.9-0.9,0.9-1.7L157.9,79.5z"/>
	</defs>
	<clipPath id="SVGID_30_">
		<use xlink:href="#SVGID_29_"  style="overflow:visible;"/>
	</clipPath>
	<g class="st14">
		<defs>
			<rect id="SVGID_31_" x="-633" y="-205" width="1440" height="3439"/>
		</defs>
		<clipPath id="SVGID_32_">
			<use xlink:href="#SVGID_31_"  style="overflow:visible;"/>
		</clipPath>
		<rect x="113.4" y="46.1" class="st15" width="53.4" height="59.3"/>
	</g>
</g>
<g>
	<defs>
		<path id="SVGID_33_" d="M138.2,67.7l0.4,0.4L138.2,67.7z"/>
	</defs>
	<clipPath id="SVGID_34_">
		<use xlink:href="#SVGID_33_"  style="overflow:visible;"/>
	</clipPath>
	<g class="st16">
		<defs>
			<rect id="SVGID_35_" x="-633" y="-205" width="1440" height="3439"/>
		</defs>
		<clipPath id="SVGID_36_">
			<use xlink:href="#SVGID_35_"  style="overflow:visible;"/>
		</clipPath>
		<rect x="133.2" y="62.7" class="st17" width="10.4" height="10.4"/>
	</g>
</g>
<g>
	<defs>
		<path id="SVGID_37_" d="M130.8,78.6v-0.4V78.6z"/>
	</defs>
	<clipPath id="SVGID_38_">
		<use xlink:href="#SVGID_37_"  style="overflow:visible;"/>
	</clipPath>
	<g class="st18">
		<defs>
			<rect id="SVGID_39_" x="-633" y="-205" width="1440" height="3439"/>
		</defs>
		<clipPath id="SVGID_40_">
			<use xlink:href="#SVGID_39_"  style="overflow:visible;"/>
		</clipPath>
		<rect x="125.8" y="73.1" class="st19" width="10" height="10.4"/>
	</g>
</g>
<g>
	<defs>
		<path id="SVGID_41_" d="M144.8,73.8h-0.4H144.8z"/>
	</defs>
	<clipPath id="SVGID_42_">
		<use xlink:href="#SVGID_41_"  style="overflow:visible;"/>
	</clipPath>
	<g class="st20">
		<defs>
			<rect id="SVGID_43_" x="-633" y="-205" width="1440" height="3439"/>
		</defs>
		<clipPath id="SVGID_44_">
			<use xlink:href="#SVGID_43_"  style="overflow:visible;"/>
		</clipPath>
		<rect x="139.4" y="68.8" class="st21" width="10.4" height="10"/>
	</g>
</g>
<g>
	<defs>
		<path id="SVGID_45_" d="M154.9,70.3C154.9,70.3,154.9,70.7,154.9,70.3C154.9,70.7,154.9,70.3,154.9,70.3z"/>
	</defs>
	<clipPath id="SVGID_46_">
		<use xlink:href="#SVGID_45_"  style="overflow:visible;"/>
	</clipPath>
	<g class="st22">
		<defs>
			<rect id="SVGID_47_" x="-633" y="-205" width="1440" height="3439"/>
		</defs>
		<clipPath id="SVGID_48_">
			<use xlink:href="#SVGID_47_"  style="overflow:visible;"/>
		</clipPath>
		<rect x="149.9" y="65.3" class="st23" width="10" height="10.2"/>
	</g>
</g>
<g>
	<defs>
		<path id="SVGID_49_" d="M164.1,124.8l10.1-4.4l10.5-5.2c0,0,5.3-2.2,8.8-3.9c7.4-3.1,13.1-6.1,13.1-6.5c-0.9-1.3-3.1-3.1-4.4-4.8
			c-0.9-1.3-2.6-4.4-2.6-4.4c-0.9,0-2.2,1.7-4.4,3.1l-18,7.4l-1.8-3.5l0.9-0.4c0,0,4.4-1.7,7-3.1c6.1-2.2,9.6-4.8,9.2-6.1
			c0-0.9-1.8-1.3-3.1-3.1c-0.9-1.3-1.8-3.9-2.2-3.9c-0.9,0-4.4,3.5-10.1,5.2c-3.1,0.9-4.8,1.7-4.8,1.7l-0.4,0.9l-2.2-5.2
			c0,0-11,4.4-11.8,4.8c-0.4,0.4,2.2,5.2,2.2,5.2l-0.4,0.4c-2.2,0.9-6.1,2.6-12.3,4.8c-1.8,0.4-3.5,0-3.9,0.9
			c-0.4,0.9,0.9,3.9,1.3,5.7c0.4,1.3,1.3,3.9,1.8,3.9c0.9,0.9,5.3-0.9,5.3-0.9c2.2-0.4,3.9-1.3,6.1-2.2c0.9-0.4,1.8-0.9,3.1-1.3
			l3.9-1.3c0,0,1.8,2.2,1.3,2.6c-0.4,1.7-15.3,6.5-15.3,6.5c-1.3,0.4-4.4,1.3-6.6,1.7c-0.4,0-0.9,0-1.3,0.4c0,0.9,1.3,4.8,1.8,6.5
			c0.4,1.3,1.8,4.4,2.6,4.8c0.9,0.4,5.7-1.7,5.7-1.7c2.6-0.9,4.8-2.2,7.4-3.1C161.4,125.7,162.8,125.3,164.1,124.8z"/>
	</defs>
	<clipPath id="SVGID_50_">
		<use xlink:href="#SVGID_49_"  style="overflow:visible;"/>
	</clipPath>
	<g class="st24">
		<defs>
			<rect id="SVGID_51_" x="-633" y="-205" width="1440" height="3439"/>
		</defs>
		<clipPath id="SVGID_52_">
			<use xlink:href="#SVGID_51_"  style="overflow:visible;"/>
		</clipPath>
		<rect x="138" y="81" class="st25" width="73.5" height="55.4"/>
	</g>
</g>
<g>
	<defs>
		<path id="SVGID_53_" d="M545.4,183.1l-4.4,14c-0.4,1.3-1.7,2.2-3.1,1.8l-13.1-4.4c-1.3-0.4-2.2-1.8-1.7-3.1l4.4-14
			c0.4-1.3,1.7-2.2,3.1-1.8l13.1,4.4C544.9,180.5,545.8,181.8,545.4,183.1z M564.1,117.1c1.3,0.4,2.2,1.8,1.7,3.1l-11.8,35
			l-5.2,14.4c-0.4,1.3-1.7,1.8-3.1,1.3l-11.3-3.5c-1.3-0.4-2.2-1.8-1.7-3.1l3.9-14.9l8.3-34.6c0.4-1.3,1.7-2.2,3.1-1.8L564.1,117.1z
			"/>
	</defs>
	<clipPath id="SVGID_54_">
		<use xlink:href="#SVGID_53_"  style="overflow:visible;"/>
	</clipPath>
	<g class="st26">
		<defs>
			<rect id="SVGID_55_" x="-633" y="-205" width="1440" height="3439"/>
		</defs>
		<clipPath id="SVGID_56_">
			<use xlink:href="#SVGID_55_"  style="overflow:visible;"/>
		</clipPath>
		<rect x="518" y="108" class="st27" width="53" height="96"/>
	</g>
</g>
<g>
	<defs>
		<path id="SVGID_57_" d="M458.2,156.9c-4.8-0.4-10.4-0.9-13.5-1.3c-0.9,0-1.3,0.4-1.3,0.9c0,1.7,0,5.2-0.4,8.3v0.9
			c0,1.3,0,3.1,0.4,5.2c0,0.9,0.9,1.7,2.2,1.7c3.9,0,12.2,0.9,25.2,0.9h3.9l-1.3,13.1c0,0.9,0.4,1.7,1.3,1.7l11.7,2.6
			c1.3,0.4,2.2-0.4,2.2-1.7l1.3-15.7h1.3c12.2,0,19.6-0.4,23-0.9c0.9,0,1.7-1.3,1.7-2.2c-0.4-1.3-0.4-3.5-0.9-7
			c0-0.9-0.4-3.9-0.4-5.2c-1.7,0-5.6,0.4-11.7,0.4c-4.3,0-5.2-0.4-10-0.4h-1.7l0.4-6.1c0,0,5.2,0,6.5,0c8.3,0.4,14.8-0.4,14.8-0.4
			l-1.3-13.1c0,0-7,0.4-9.6,0.4c-3,0-9.1-0.9-9.1-0.9l0.4-7.8c0-0.9-0.4-1.7-1.3-1.7l-12.6-1.3c-0.9,0-1.7,0.4-1.7,1.3l-0.4,7.8
			l-12.2-0.9l4.3-14.8l4.8,0.4c25.2,2.2,31.7,1.3,34.8,0.4c0.9,0,1.3-0.9,1.3-1.7c-0.4-1.3-0.4-3.5-0.4-5.7c0-2.2,0.4-4.4,0.4-6.1
			c0-0.4-0.4-0.9-0.9-0.9c-3,0-8.7,0.9-13.5,0.4c-2.2,0-3.9,0-6.1-0.4c-3.5-0.4-7-0.4-12.2-1.3h-0.9l2.6-9.6c0-0.4-0.4-1.3-0.9-1.3
			h-10.9c-0.9,0-1.7,0.4-2.2,1.7l-3,7.8l-1.7-0.4c-3-0.4-4.8-0.9-6.5-1.3c-3-0.9-6.1-1.7-7.8-2.2c0,1.3-0.4,1.7-0.4,4.8
			c0,3.9-0.4,7.8,0.9,12.6c0,0.9,0.9,1.3,1.7,1.3c1.3,0,3.5,0.4,5.6,0.4h1.3l-7.4,21.8c-0.4,0.9-0.4,2.2,0.4,3.1l0.9,1.7
			c0.4,1.3,1.7,1.7,3,2.2l24.3,2.2l-0.9,6.5C475.2,157.3,466.5,157.8,458.2,156.9z"/>
	</defs>
	<clipPath id="SVGID_58_">
		<use xlink:href="#SVGID_57_"  style="overflow:visible;"/>
	</clipPath>
	<g class="st28">
		<defs>
			<rect id="SVGID_59_" x="-633" y="-205" width="1440" height="3439"/>
		</defs>
		<clipPath id="SVGID_60_">
			<use xlink:href="#SVGID_59_"  style="overflow:visible;"/>
		</clipPath>
		<rect x="438" y="90" class="st29" width="83" height="106"/>
	</g>
</g>
<g>
	<defs>
		<path id="SVGID_61_" d="M269.5,164l-9.1,3.5c0,0,0,0-0.4,0c0,0,0,0-0.4,0c0,0-0.4,0-0.4-0.4l-1.7-5.2c0-0.4,0-0.9,0.4-0.9l9.1-3.5
			h0.4c0,0,0.4,0,0.4,0.4l1.7,5.2C269.9,163.1,269.9,163.5,269.5,164z M254.7,150.9C254.2,150.9,254.2,150.9,254.7,150.9
			c-0.4,0-0.4,0-0.4,0s-0.4,0-0.4-0.4l-1.7-5.2c0-0.4,0-0.9,0.4-0.9l9.1-3.5h0.4c0,0,0.4,0,0.4,0.4l1.7,5.2c0,0.4,0,0.9-0.4,0.9
			L254.7,150.9z M248.6,171.4l-9.1,3.5c0,0,0,0-0.4,0c0,0,0,0-0.4,0c0,0-0.4,0-0.4-0.4l-1.7-4.8c0-0.4,0-0.9,0.4-0.9l9.1-3.5h0.4
			c0,0,0.4,0,0.4,0.4l1.7,5.2C249,170.9,248.6,171.4,248.6,171.4z M233.3,158.7L233.3,158.7c-0.4,0-0.4,0-0.4,0s-0.4,0-0.4-0.4
			l-1.7-5.2c0-0.4,0-0.9,0.4-0.9l9.1-3.5h0.4c0,0,0.4,0,0.4,0.4l1.7,5.2c0,0.4,0,0.9-0.4,0.9L233.3,158.7z M296,193.6l-26.5-72.7
			c0-0.4-0.4-0.4-0.4-0.9h-0.4h-0.4c-6.5,3.5-17.8,8.7-33.9,14.8c-5.7,2.2-14.4,4.4-19.6,5.7l-1.7,0.4c-0.4,0-0.4,0.4-0.9,0.4
			c0,0.4,0,0.4,0,0.9c1.7,3.9,7.4,18.3,10.4,27c6.1,17,9.6,30,10,38.7c0,0.4,0,0.4,0.4,0.9c0.4,0,0.4,0.4,0.9,0l12.2-3
			c0.4,0,0.9-0.9,0.9-1.3c0-1.3-0.4-3.9-1.3-7.8c-1.3-5.2-2.2-9.1-2.6-10h-0.4v-0.4c0,0,4.4-1.3,8.3-2.6c0.9,0,1.7,0.4,1.7,1.3
			l4.4,15.7l13.1-3l-4.8-15.2c-0.4-0.9,0-1.7,0.9-2.2l7.4-2.6c0.4,0,0.9,0,1.3,0c0.4,0,0.9,0.4,0.9,0.9s4.4,9.6,4.4,13.1
			c0,0.9-0.4,3.9-0.9,5.2l15.7-1.7c0.4,0,0.4-0.4,0.9-0.4C296,194.4,296,194,296,193.6z"/>
	</defs>
	<clipPath id="SVGID_62_">
		<use xlink:href="#SVGID_61_"  style="overflow:visible;"/>
	</clipPath>
	<g class="st30">
		<defs>
			<rect id="SVGID_63_" x="-633" y="-205" width="1440" height="3439"/>
		</defs>
		<clipPath id="SVGID_64_">
			<use xlink:href="#SVGID_63_"  style="overflow:visible;"/>
		</clipPath>
		<rect x="207" y="115" class="st31" width="94" height="99"/>
	</g>
</g>
<g>
	<defs>
		<path id="SVGID_65_" d="M164.5,176.8c0.4-0.4,0.9-1.3,0.4-1.8l-3.5-7c0-0.4-0.4-0.4-0.9-0.9c-0.4,0-0.9,0-0.9,0l-7,3.9
			c-1.3-3.5-2.6-6.1-3.9-7c-0.4-0.4-1.3-0.4-1.7,0c-4.8,3.5-7.8,5.7-8.7,6.1c-0.4,0.4-0.9,1.3-0.4,1.8l2.6,5.3
			c-0.4,0.4-4.3,3.5-9.6,5.3c-0.4,0-0.9,0.4-0.9,0.9s0,0.9,0,0.9c0.4,2.2,3.5,5.7,6.1,8.3c0.4,0.4,0.4,0.4,0.9,0.4h0.4
			c7-3.5,11.3-5.7,13-6.6C155.8,183.4,161.9,179,164.5,176.8z"/>
	</defs>
	<clipPath id="SVGID_66_">
		<use xlink:href="#SVGID_65_"  style="overflow:visible;"/>
	</clipPath>
	<g class="st32">
		<defs>
			<rect id="SVGID_67_" x="-633" y="-205" width="1440" height="3439"/>
		</defs>
		<clipPath id="SVGID_68_">
			<use xlink:href="#SVGID_67_"  style="overflow:visible;"/>
		</clipPath>
		<rect x="125.2" y="158.8" class="st33" width="45" height="39.2"/>
	</g>
</g>
<g>
	<defs>
		<path id="SVGID_69_" d="M149.7,223.2v0.9c0.9,1.8,2.6,6.6,2.6,14.5v0.4h0.4c0.4,0,0.4,0,0.9,0c3,0,9.1-3.1,10-3.5l0.9-0.4
			l-6.1-16.2L149.7,223.2z"/>
	</defs>
	<clipPath id="SVGID_70_">
		<use xlink:href="#SVGID_69_"  style="overflow:visible;"/>
	</clipPath>
	<g class="st34">
		<defs>
			<rect id="SVGID_71_" x="-633" y="-205" width="1440" height="3439"/>
		</defs>
		<clipPath id="SVGID_72_">
			<use xlink:href="#SVGID_71_"  style="overflow:visible;"/>
		</clipPath>
		<rect x="144.7" y="213.8" class="st35" width="24.8" height="30.2"/>
	</g>
</g>
<g>
	<defs>
		<path id="SVGID_73_" d="M154.5,198.7l5.2-2.6l2.6,5.7l-5.2,2.6L154.5,198.7z M170.2,209.6l5.7-3.1c0.9-0.4,0.9-0.9,0.9-1.8
			c-1.7-3.9-7-18-11.7-23.7c-0.4-0.4-1.3-0.9-1.7-0.4c-10,5.7-18.3,10.5-22.6,12.7c-0.9,0.4-0.9,1.3-0.4,1.8
			c1.3,3.1,6.1,12.7,9.6,21c0,0.4,0.9,0.9,1.3,0.9c2.2,0,6.1-1.8,7.8-2.6c1.3,3.1,7,14.5,7.8,19.3c0,0.9,0.4,3.5,0.4,3.9v0.9
			l13.9-3.5c0.4,0,0.9-0.4,0.9-0.9s0-0.9,0-1.3L170.2,209.6z"/>
	</defs>
	<clipPath id="SVGID_74_">
		<use xlink:href="#SVGID_73_"  style="overflow:visible;"/>
	</clipPath>
	<g class="st36">
		<defs>
			<rect id="SVGID_75_" x="-633" y="-205" width="1440" height="3439"/>
		</defs>
		<clipPath id="SVGID_76_">
			<use xlink:href="#SVGID_75_"  style="overflow:visible;"/>
		</clipPath>
		<rect x="134.9" y="175.6" class="st37" width="52" height="68"/>
	</g>
</g>
<g>
	<defs>
		<path id="SVGID_77_" d="M227.6,208.3l-8.3-10.1l-0.9,1.3c-0.4,0.9-0.9,1.3-0.9,1.8c-0.4,0.4-2.2,1.8-4.8,3.1l0,0h-0.4
			c-1.3-2.2-7.8-13.6-12.6-22.8c0-0.4-0.4-0.4-0.9-0.9c-0.4,0-0.9,0-1.3,0.4c-2.6,2.2-7,4.8-7.4,5.3l-1.7-4.4l13.9-7.4
			c0.4-0.4,0.9-0.9,0.4-1.8c-0.4-1.3-2.6-6.6-3.9-9.2c0-0.4-0.4-0.4-0.9-0.4s-0.9,0-1.3,0.4c-4.8,3.5-10.9,6.1-11.3,6.6
			c-0.4-0.9-6.1-12.7-9.6-17.5c-0.4-0.4-1.3-0.9-1.7,0c-3,2.2-6.5,3.9-8.3,4.8c-0.4,0-0.4,0.4-0.9,0.9c0,0.4,0,0.9,0,0.9l7.4,15.3
			c-0.9,0.4-3.5,1.8-5.7,3.1c-0.9,0.4-0.9,0.9-0.9,1.8c0.9,2.6,3.9,7.4,5.7,10.1l0.4,0.4l4.8-2.2c0.4,1.8,11.3,27.6,11.7,39
			c0,0.9,0.4,1.3,1.3,1.3c0.4,0,0.4,0,0.9,0c2.6,0,6.5-0.9,8.7-2.2c0.4-0.4,0.9-0.9,0.9-1.3c0-9.6-5.2-24.1-6.5-27.6l11.7,19.7
			c1.3,2.2,4.3,3.1,6.5,1.8l15.2-8.3c0.4,0,0.4-0.4,0.9-0.9C227.6,209.2,227.6,208.8,227.6,208.3z"/>
	</defs>
	<clipPath id="SVGID_78_">
		<use xlink:href="#SVGID_77_"  style="overflow:visible;"/>
	</clipPath>
	<g class="st38">
		<defs>
			<rect id="SVGID_79_" x="-633" y="-205" width="1440" height="3439"/>
		</defs>
		<clipPath id="SVGID_80_">
			<use xlink:href="#SVGID_79_"  style="overflow:visible;"/>
		</clipPath>
		<rect x="160" y="147.2" class="st39" width="73" height="85.9"/>
	</g>
</g>
<g>
	<defs>
		<path id="SVGID_81_" d="M181.5,208.3c-0.4,0-0.9,0-0.9,0l-6.1,3.5c-0.4,0.4-0.9,0.9-0.4,1.8l3.5,8.3c0,0.4,0.4,0.4,0.9,0.9h0.4
			h0.4l6.1-3.1c0.4-0.4,0.9-0.9,0.4-1.8l-3.5-8.8C181.9,208.8,181.9,208.3,181.5,208.3z"/>
	</defs>
	<clipPath id="SVGID_82_">
		<use xlink:href="#SVGID_81_"  style="overflow:visible;"/>
	</clipPath>
	<g class="st40">
		<defs>
			<rect id="SVGID_83_" x="-633" y="-205" width="1440" height="3439"/>
		</defs>
		<clipPath id="SVGID_84_">
			<use xlink:href="#SVGID_83_"  style="overflow:visible;"/>
		</clipPath>
		<rect x="168.9" y="203.3" class="st41" width="22.1" height="24.5"/>
	</g>
</g>
<g>
	<defs>
		<path id="SVGID_85_" d="M188.9,164.5l1.7,1.3c0.4,0,0.4,0,0.9,0c0.4,0,0.9-0.4,1.3-0.9l4.8-7.9c0.4-0.4,0.4-0.9,0-1.3
			c0-0.4-0.4-0.9-0.9-0.9c-2.6-0.9-4.8-1.8-5.2-1.8l-5.7-2.6c-0.4,0-0.9,0-1.3,0c-0.4,0-0.9,0.4-0.9,0.9l-2.6,7.4
			c-0.4,0.9,0,1.3,0.9,1.8L188.9,164.5z"/>
	</defs>
	<clipPath id="SVGID_86_">
		<use xlink:href="#SVGID_85_"  style="overflow:visible;"/>
	</clipPath>
	<g class="st42">
		<defs>
			<rect id="SVGID_87_" x="-633" y="-205" width="1440" height="3439"/>
		</defs>
		<clipPath id="SVGID_88_">
			<use xlink:href="#SVGID_87_"  style="overflow:visible;"/>
		</clipPath>
		<rect x="175.9" y="145.5" class="st43" width="27" height="25.3"/>
	</g>
</g>
<g>
	<defs>
		<polygon id="SVGID_89_" points="217.1,111 215,90.7 225,88 224.6,109.7 		"/>
	</defs>
	<clipPath id="SVGID_90_">
		<use xlink:href="#SVGID_89_"  style="overflow:visible;"/>
	</clipPath>
	<g class="st44">
		<defs>
			<rect id="SVGID_91_" x="-633" y="-205" width="1440" height="3439"/>
		</defs>
		<clipPath id="SVGID_92_">
			<use xlink:href="#SVGID_91_"  style="overflow:visible;"/>
		</clipPath>
		<rect x="210" y="83" class="st45" width="20" height="33"/>
	</g>
</g>
<g>
	<defs>
		<path id="SVGID_93_" d="M307.2,193.3c2.6,0.4,8.7-0.4,21.2-3.9c27.7-8.3,34.7-12.7,36-14l0.4-0.4l-0.4-0.4
			c-0.9-0.9-3.5-3.9-4.8-6.5c-0.4-0.9-0.9-1.3-0.9-2.2c0,0,0-0.4-0.4-0.4l-0.4,0.4c-1.3,0.9-4.3,2.2-9.5,3.1
			c-1.7,0.4-4.3,0.9-7.4,1.7c-5.6,1.3-13.4,3.1-20.8,4.4c-7.4,1.3-7.4,1.3-12.6,2.2c-0.9,0-2.6,0-4.3,0c-0.9,0-2.2,0-2.6,0h-0.9v0.9
			c0.4,1.3,0.9,3.1,1.7,5.7C304.2,188.9,307.2,193.3,307.2,193.3z"/>
	</defs>
	<clipPath id="SVGID_94_">
		<use xlink:href="#SVGID_93_"  style="overflow:visible;"/>
	</clipPath>
	<g class="st46">
		<defs>
			<rect id="SVGID_95_" x="-633" y="-205" width="1440" height="3439"/>
		</defs>
		<clipPath id="SVGID_96_">
			<use xlink:href="#SVGID_95_"  style="overflow:visible;"/>
		</clipPath>
		<rect x="294.8" y="160.3" class="st47" width="75" height="38"/>
	</g>
</g>
<g>
	<defs>
		<path id="SVGID_97_" d="M341.9,155.3c0,0-4.3,2.2-16.9,3.9c-0.9,0-1.7,0.4-2.6,0.4c-2.6,0.4-4.3,0.4-5.2,0.4v-2.2h0.9
			c0.4,0,4.8-0.4,9.1-0.9c3.9-0.4,11.3-2.2,13.9-3.1l0.9-0.4c0,0.4,0.4,1.3,0.4,1.3v0.4H341.9z M319.3,150.1h-2.2l-0.4-2.6h0.9
			c0.9,0,3,0,6.5,0c8.2-0.4,13.4-1.3,14.7-1.7h0.9v0.9c0,0,0,0.4,0.4,1.3v0.4c-0.4,0-8.2,1.3-15.6,1.7
			C320.2,150.1,319.3,150.1,319.3,150.1z M355.3,161.8c-1.3-2.6-3.5-7.9-4.3-13.5c-0.4-3.9-0.9-7-1.7-9.2l-0.4-1.7l1.7,0.9
			c0,0,1.7,0.9,2.6,0.4c3-0.9,4.8-10,4.8-10c0-0.4,0-0.9-0.4-0.9c-2.2-0.4-5.2-0.9-7.8-2.2c-0.9-0.4-2.6-1.3-7.4-3.9l-1.3-0.9
			l-6.9,6.1l1.7,1.7c1.7,1.7,3.5,3.1,5.2,4.4c0.4,0.4,0.9,0.4,0.9,0.9c0.4,0.4,0.9,0.4,1.7,1.3l0.4,0.4l-3.5,0.9
			c-4.3,0.9-6.1,1.3-18.6,2.6c-2.6,0.4-5.2,0-7.4,0c-0.9-0.4-3.9-0.9-3.9-0.9c1.7-1.7,4.3-4.8,6.1-7c0.9-0.9,1.3-2.2,2.2-3.5
			l-10-4.4l10.4-0.9c0,0,0,0.9,0.4,1.7c0,0.4,0,0.9,0.4,1.3c0,0.4,0,0.4,0.4,0.9v0.4c0.4,0.9,0.4,2.2,0.9,3.5
			c0.9,3.1,1.3,4.8,1.7,5.7v0.4h0.4c0.9,0,2.6,0,4.3-0.4c4.3-0.9,6.9-1.7,8.2-2.6c0,0,0.4,0,0.9-0.4l-0.4-0.4
			c-0.4-0.9-0.9-1.7-1.3-2.6l-1.3-3.1c-0.4-0.9-0.9-2.6-1.3-3.9c0-0.9-0.4-2.6-0.4-2.6h8.2h2.6c4.8-0.4,7.4-0.9,9.1-1.7
			c0,0,0.4,0,0.9-0.4l-0.4-0.4c-0.4-0.9-1.3-2.6-1.7-4.4c-0.4-1.3-0.4-2.6-0.4-3.9c0,0,0-0.4,0-0.9h-0.9c-2.2,0.4-5.6,0.9-11.3,0.9
			c-3.5,0-5.2,0-5.6,0h-0.9V109c-0.4-1.7-0.4-4.4-0.4-6.1c0,0,0.4-0.9,0-0.9l-0.9,0.4c-1.3,0.4-3.9,1.3-8.2,1.7
			c-1.7,0.4-3.5,0.9-4.3,1.3h-0.4c-0.4,0.9,0,3.9,0,3.9h-0.9c-0.9,0-6.5,0.4-16.5,0c-1.3,0-2.6-0.4-3.5-0.4c0,0-0.4-0.4-0.9-0.4v0.9
			c-0.4,1.7-0.4,4.8-0.4,7c0,2.2,0.4,5.2,0.4,6.5v0.4l5.6,0.4c0.4,0,0.9,0,1.3,0h1.7v1.3c-1.3,1.7-1.7,2.2-2.2,3.1l-0.4,0.4
			c-2.6,2.6-5.2,4.8-7.4,5.7c0,0-1.7,0.4-1.7,1.3c0,0.4,1.3,1.3,1.3,1.3c1.7,2.2,3,3.1,3.9,3.9c2.2,1.7,3,2.6,5.2,3.5l0.9-0.9
			l2.2-1.7v0.9c0,3.5,0.4,9.2,0.4,14.8c0,7.9,1.3,12.7,1.7,14.4v0.4c0.4,0,1.3,0,1.3,0c3.5,0,11.3-0.9,18.6-2.6
			c12.1-3.1,18.6-4.8,22.5-6.1c1.7-0.4,3-0.9,3.9-1.3h0.9L355.3,161.8z"/>
	</defs>
	<clipPath id="SVGID_98_">
		<use xlink:href="#SVGID_97_"  style="overflow:visible;"/>
	</clipPath>
	<g class="st48">
		<defs>
			<rect id="SVGID_99_" x="-633" y="-205" width="1440" height="3439"/>
		</defs>
		<clipPath id="SVGID_100_">
			<use xlink:href="#SVGID_99_"  style="overflow:visible;"/>
		</clipPath>
		<rect x="287.9" y="97.1" class="st49" width="75" height="80.3"/>
	</g>
</g>
<g>
	<defs>
		<path id="SVGID_101_" d="M374.7,186.6c3,0.9,9.1,0.4,23-2.2c30.3-5.7,37.7-9.6,39.4-10.9l0.4-0.4l-0.4-0.4c-0.9-1.3-3-4.4-4.3-7.4
			c-0.4-0.9-0.4-1.7-0.9-2.2l-0.4-0.4L431,163c-1.3,0.4-4.8,1.7-10.4,2.2c-1.7,0-4.8,0.4-8.2,0.9c-6.1,0.9-14.3,1.7-22.1,2.6
			c-8.2,0.4-8.2,0.4-13.4,0.9c-0.9,0-2.6,0-4.3-0.4c-0.9,0-2.2-0.4-3-0.4h-0.9v0.9c0,1.3,0.4,3.1,1.3,6.1
			C372.1,181.3,374.7,186.6,374.7,186.6z"/>
	</defs>
	<clipPath id="SVGID_102_">
		<use xlink:href="#SVGID_101_"  style="overflow:visible;"/>
	</clipPath>
	<g class="st50">
		<defs>
			<rect id="SVGID_103_" x="-633" y="-205" width="1440" height="3439"/>
		</defs>
		<clipPath id="SVGID_104_">
			<use xlink:href="#SVGID_103_"  style="overflow:visible;"/>
		</clipPath>
		<rect x="363.6" y="157.6" class="st51" width="78.9" height="34.4"/>
	</g>
</g>
<g>
	<defs>
		<path id="SVGID_105_" d="M415,150.3c0,0-4.8,1.7-18.2,2.2c-0.9,0-1.7,0-2.6,0c-2.6,0-4.3,0-5.2,0l0.4-2.6h0.9c0.4,0,5.2,0.4,9.5,0
			c3.9,0,12.1-1.3,15.2-1.7l0.9-0.4c0,0.4,0,1.3,0,1.3v0.4L415,150.3z M392,142.5h-2.2v-2.6h0.9c0.9,0,3,0.4,6.9,0.4
			c8.7,0.4,14.3,0,15.6-0.4h0.9v0.9c0,0,0,0.4,0.4,1.3v0.4c-0.4,0-8.7,0.4-16.5,0.4C392.9,142.5,392,142.5,392,142.5z M428.9,158.6
			c-0.9-3.1-3-8.7-3-14.4c0-3.9-0.4-7.4-0.9-10l-0.4-1.7l1.7,1.3l1.7,1.3l6.9-11.3c-2.2-0.4-5.6-1.3-8.7-3.5
			c-0.9-0.4-2.6-1.7-7.4-5.2l-1.3-0.9l-8.2,5.7l1.7,2.2c1.7,1.7,3.5,3.5,4.8,4.8c0.4,0.4,0.9,0.4,0.9,0.9c0.4,0.4,0.4,0.9,1.7,1.3
			l0.4,0.4l-3.9,0.4c-4.3,0.4-6.5,0.9-19.9,0.4c-2.6,0-5.6-0.4-7.8-0.9c-0.9,0-4.3-0.9-4.3-0.9c2.2-1.7,4.8-4.4,6.9-6.5
			c0.9-0.9,1.7-2.2,2.6-3.5l-8.7-5.7h11.3c0,0,0,0.9,0,2.2c0,0.4,0,1.3,0,1.7c0,0.4,0,0.9,0,0.9v0.4c0,0.9,0.4,2.2,0.9,3.9
			c0.4,3.5,0.9,5.2,1.3,6.5v0.4h0.4c0.9,0,2.6,0,4.3,0c4.3-0.4,7.4-1.3,9.1-1.7l0.9-0.4l-0.4-0.9c-0.4-0.9-0.9-1.7-1.3-2.6l-0.9-3.5
			c-0.4-0.9-0.9-2.2-0.9-3.5c0-0.9-0.4-3.1-0.4-3.1l9.1,0.9h2.6c4.8,0.4,8.2,0,10-0.4h0.9l-0.4-0.9c-0.4-0.9-0.9-2.6-1.3-4.8
			c0-1.3-0.4-2.6-0.4-3.9v-0.9h-0.9c-2.2,0.4-6.1,0.4-12.1-0.4c-3.5-0.4-5.6-0.4-5.6-0.4h-0.9v-0.9c-0.4-1.7,0-4.8,0.4-6.5v-0.9
			h-0.9c-1.7,0.4-4.3,0.9-8.7,1.3c-2.2,0-3.5,0.4-4.8,0.9h-0.4l-0.4,3.9h-0.9c-0.9,0-6.9-0.4-17.3-1.7c-1.3,0-2.6-0.4-3.5-0.9
			l-0.9-0.4V98c-0.4,2.2-0.9,4.8-1.3,7c0,2.2,0,5.7,0,7v0.4l5.6,0.9c0.4,0,0.9,0,1.3,0l2.2,0.4l-0.9,1.3c-1.3,1.7-2.2,2.2-3,2.6h0.4
			c-3,2.6-6.1,4.4-8.2,5.2l-2.2,0.9l1.3,1.7c1.7,2.2,2.6,3.5,3.5,4.4c2.2,2.2,3,3.1,4.8,4.4l1.3-0.4l2.6-1.3v0.9
			c-0.4,3.9-0.9,9.6-1.3,15.7c-0.9,8.3,0,13.1,0,15.3v0.4h1.3c3.5,0,11.7,0.4,19.9-0.4c13-1.7,19.9-3.1,24.3-3.9
			c1.7-0.4,3-0.4,4.3-0.9h0.9L428.9,158.6z"/>
	</defs>
	<clipPath id="SVGID_106_">
		<use xlink:href="#SVGID_105_"  style="overflow:visible;"/>
	</clipPath>
	<g class="st52">
		<defs>
			<rect id="SVGID_107_" x="-633" y="-205" width="1440" height="3439"/>
		</defs>
		<clipPath id="SVGID_108_">
			<use xlink:href="#SVGID_107_"  style="overflow:visible;"/>
		</clipPath>
		<rect x="360.6" y="89.1" class="st53" width="79.3" height="80.8"/>
	</g>
</g>
<g>
	<defs>
		<path id="SVGID_109_" d="M306.3,58.7v0.9c0,0.4,0.9,10.5,0.9,13.2c0,1.8,0.4,4.8,0.4,6.6c0,0.9,0,0.9,0.4,1.3c0.4,0,0.9,0,0.9,0
			l16.5-6.6c0,0,0.9-0.4,0.9-0.9s0-0.9,0-1.3c-0.4-0.9-0.9-2.2-1.3-3.1c-0.4-0.9-1.3-3.1-1.7-3.9l-4.3,1.8l-1.3-9.7
			c0-0.4,0.4-0.9,0.9-1.3l4.8-1.3l-2.2-7.5l-5.2,0.9l-0.9-5.7c0-0.4,0.4-1.3,0.9-1.3l4.3-0.9c0.4,0,0.9-0.9,0.9-1.3l-1.7-6.6
			c0-0.4-0.9-0.9-1.3-0.9c-2.2,0.4-6.1,1.3-7.8,1.3c-1.7,0-7.4,0.9-7.4,0.9l-0.9,0.4l2.6-5.7c0-0.4,0.4-0.4,0.9-0.4l13.4-1.8l-0.4-4
			l-0.9-5.3l-7.8,0.9l1.3-2.2L302,9.1c-0.9-0.4-1.7,0-1.7,0.9c-0.9,3.9-2.2,11.4-4.8,15.8c-0.4,1.3-2.6,3.5-3.5,4.8l7.4,4.8
			c0.4,0,0.4,0.4,0.4,0.9l0.9,6.6l4.3-0.4l0.9,6.6l-4.3,1.3l1.3,9.7L306.3,58.7z"/>
	</defs>
	<clipPath id="SVGID_110_">
		<use xlink:href="#SVGID_109_"  style="overflow:visible;"/>
	</clipPath>
	<g class="st54">
		<defs>
			<rect id="SVGID_111_" x="-633" y="-205" width="1440" height="3439"/>
		</defs>
		<clipPath id="SVGID_112_">
			<use xlink:href="#SVGID_111_"  style="overflow:visible;"/>
		</clipPath>
		<rect x="287" y="4" class="st55" width="44.2" height="81.7"/>
	</g>
</g>
<g>
	<defs>
		<path id="SVGID_113_" d="M306.8,57.9v1.8c0.4,3.1,0.9,11,0.9,13.2c0,1.8,0.4,4.8,0.4,6.6c0,0.4,0,0.9,0.4,0.9h0.4l16.5-6.6
			c0.4,0,0.4-0.4,0.9-0.4c0,0,0-0.4,0-0.9c-0.4-0.9-0.9-2.2-1.3-3.1c-0.4-0.9-0.9-2.2-1.7-3.5l-4.8,2.2l-1.3-10.5
			c0-0.9,0.4-1.8,1.3-1.8l4.3-1.3l-2.2-6.6l-5.2,0.9l-0.9-6.1c0-0.9,0.4-1.8,1.3-1.8l4.3-0.9c0.4,0,0.4-0.4,0.4-0.9l-1.7-6.6
			c0-0.4-0.4-0.4-0.9-0.4c-2.2,0.4-6.1,1.3-7.8,1.3c-1.7,0-6.9,0.9-7.4,0.9l-2.2,0.4l3-6.6c0.4-0.4,0.9-0.9,1.3-0.9l12.6-1.8
			l-0.4-3.1l-0.4-4.8l-8.2,0.9l1.3-2.6l-8.7-5.7h-0.4l-0.4,0.4c-0.9,3.9-2.2,11.4-4.8,15.8c-0.4,0.9-2.2,3.1-3,4.4l6.9,4.8
			c0.4,0.4,0.9,0.9,0.9,1.3l0.9,5.7l4.3-0.4l0.9,7.5l-4.3,1.3l0.9,8.3L306.8,57.9z M308.9,81.1c-0.4,0-0.4,0-0.9,0
			c-0.4-0.4-0.9-0.9-0.9-1.8c0-1.8-0.4-4.8-0.4-6.6c0-2.6-0.9-10.5-0.9-13.2v-0.4l-3.9,1.3L300.7,50l4.3-1.3l-0.9-5.7l-4.3,0.4
			l-0.9-7c0,0,0-0.4-0.4-0.4l-7.8-5.3l0.4-0.4c0.9-0.9,2.6-3.5,3.5-4.8c2.6-4.4,3.9-11.4,4.8-15.4c0-0.4,0.4-0.9,0.9-1.3
			c0.4-0.4,1.3,0,1.7,0l9.5,6.1l-0.9,1.8l7.4-0.9l0.9,6.1l0.4,4.4L305.5,28c0,0-0.4,0-0.4,0.4l-2.2,4.8h0.4c0,0,5.6-0.9,7.4-0.9
			c1.7,0,6.1-1.3,7.4-1.3c0.9,0,1.7,0.4,2.2,1.3l1.7,6.6c0.4,0.9-0.4,1.8-1.3,2.2l-4.3,0.9c-0.4,0-0.4,0.4-0.4,0.4l0.4,5.3l5.2-0.9
			l2.6,8.8l-5.6,1.8c-0.4,0-0.4,0.4-0.4,0.4l1.3,8.8l4.3-1.8v0.4c0.4,0.9,1.3,3.1,1.7,3.9c0.4,0.9,0.9,2.2,1.3,3.1
			c0.4,0.4,0.4,1.3,0,1.8c0,0.4-0.9,0.9-1.3,1.3L308.9,82C309.4,81.1,308.9,81.1,308.9,81.1z"/>
	</defs>
	<clipPath id="SVGID_114_">
		<use xlink:href="#SVGID_113_"  style="overflow:visible;"/>
	</clipPath>
	<g class="st56">
		<defs>
			<rect id="SVGID_115_" x="-633" y="-205" width="1440" height="3439"/>
		</defs>
		<clipPath id="SVGID_116_">
			<use xlink:href="#SVGID_115_"  style="overflow:visible;"/>
		</clipPath>
		<rect x="285.7" y="3.5" class="st57" width="46.3" height="83.5"/>
	</g>
</g>
<g>
	<defs>
		<path id="SVGID_117_" d="M338.8,53l-0.4-3.9l10.8-0.9l0.4,3.9L338.8,53z M336.2,37.7l10.8-0.9l0.4,3.5l-10.8,0.9L336.2,37.7z
			 M355.3,24.5c-0.4,0.4-1.3,0.4-1.7,0.4c-1.7,0.4-6.5,0.9-6.5,0.9h-0.9l-2.6-21.9c-1.3,0.4-3.5,1.3-6.1,2.2
			c-2.6,0.9-4.3,0.9-5.2,0.9l2.2,19.3l-0.4,0.4c0,0-0.4,0.4-4.3,1.3c-0.9,0.4-3.5,0.9-4.8,0.9c0.9,4.4,3.9,22.8,4.3,29.4
			c0.9,8.8-0.4,16.2-0.9,18.9l9.1,0.9c0.9,0,1.7-0.4,1.7-1.3V66.2c0-0.9,0.9-1.8,1.7-1.8l7.4-0.9c0.9,0,1.7,0.4,2.2,1.8l0.9,8.3
			l-0.9,3.5l10.8-1.3c0.9,0,1.7-0.9,1.7-2.2L355.3,24.5z"/>
	</defs>
	<clipPath id="SVGID_118_">
		<use xlink:href="#SVGID_117_"  style="overflow:visible;"/>
	</clipPath>
	<g class="st58">
		<defs>
			<rect id="SVGID_119_" x="-633" y="-205" width="1440" height="3439"/>
		</defs>
		<clipPath id="SVGID_120_">
			<use xlink:href="#SVGID_119_"  style="overflow:visible;"/>
		</clipPath>
		<rect x="320" y="-1.1" class="st59" width="48.1" height="84.2"/>
	</g>
</g>
<g>
	<defs>
		<path id="SVGID_121_" d="M336.7,38.1l0.4,2.6l9.5-0.9l-0.4-2.6L336.7,38.1z M336.2,42.1l-0.9-4.8l11.7-1.3l0.9,4.8L336.2,42.1z
			 M338.8,49.5l0.4,3.1l9.5-0.9l-0.4-3.1L338.8,49.5z M338,53.5l-0.4-5.3l11.7-1.3l0.4,5.3L338,53.5z M329.3,76.7l8.2,0.9
			c0.4,0,0.4,0,0.9-0.4l0.4-0.4V66.2c0-1.3,0.9-2.2,2.2-2.2l7.4-0.9c1.3,0,2.6,0.9,2.6,2.2l0.9,8.8l-0.9,3.1l10-1.3
			c0.4,0,0.4-0.4,0.9-0.4c0-0.4,0.4-0.4,0.4-0.9l-6.9-48.3c-0.4,0-0.9,0.4-1.3,0.4c-1.7,0.4-6.5,0.9-6.5,0.9h-1.3l-2.6-21.5
			c-1.3,0.4-3,1.3-5.6,1.8c-2.2,0.4-3.9,0.9-4.8,0.9l2.2,18.9l-0.4,0.4c0,0-0.4,0.4-4.8,1.3h-0.9c-1.3-0.4-2.6,0-3.9,0
			c0.9,5.7,3.9,22.4,4.3,29C330.6,66.2,329.7,73.7,329.3,76.7z M337.5,78.5L337.5,78.5l-9.5-0.9v-0.4c0.4-2.2,1.3-10.1,0.9-18.9
			c-0.4-6.6-3.5-24.1-4.3-29.4v-0.4h0.4c0.9,0,2.6-0.4,3.9-0.9h0.9c1.7-0.4,3.9-0.9,4.3-0.9l-2.2-19.8h0.4c0.9,0,2.6-0.4,5.2-0.9
			c2.6-0.9,4.8-1.3,6.1-2.2l0.9-0.4l2.6,21.9c0.4,0,4.8-0.4,6.5-0.9c0.4,0,1.3-0.4,1.7-0.4h0.4l7.4,49.2c0,0.4,0,1.3-0.4,1.8
			c-0.4,0.4-0.9,0.9-1.7,0.9l-11.3,1.8l1.3-4.4l-1.3-8.3c0-0.9-0.9-1.3-1.3-1.3l-7.4,1.3c-0.4,0-1.3,0.4-1.3,1.3v10.5
			c0,0.4-0.4,0.9-0.9,1.3C338.8,78.5,338.4,78.5,337.5,78.5z"/>
	</defs>
	<clipPath id="SVGID_122_">
		<use xlink:href="#SVGID_121_"  style="overflow:visible;"/>
	</clipPath>
	<g class="st60">
		<defs>
			<rect id="SVGID_123_" x="-633" y="-205" width="1440" height="3439"/>
		</defs>
		<clipPath id="SVGID_124_">
			<use xlink:href="#SVGID_123_"  style="overflow:visible;"/>
		</clipPath>
		<rect x="319.5" y="-1.6" class="st61" width="48.6" height="85.1"/>
	</g>
</g>
<g>
	<defs>
		<path id="SVGID_125_" d="M356.6,22.3l5.2-7.9c0.4-0.4,0-0.9-0.4-0.9c-1.3-0.4-4.8-1.8-5.2-2.2l-5.6-3.1c0,0,0,0-0.4,0
			c-0.4,0-0.4,0-0.4,0.4l-3,7.5c0,0.4,0,0.4,0.4,0.9l6.9,4.4l0.9,0.9l0.9,0.4h0.4C356.2,22.3,356.6,22.3,356.6,22.3z"/>
	</defs>
	<clipPath id="SVGID_126_">
		<use xlink:href="#SVGID_125_"  style="overflow:visible;"/>
	</clipPath>
	<g class="st62">
		<defs>
			<rect id="SVGID_127_" x="-633" y="-205" width="1440" height="3439"/>
		</defs>
		<clipPath id="SVGID_128_">
			<use xlink:href="#SVGID_127_"  style="overflow:visible;"/>
		</clipPath>
		<rect x="341.6" y="3.3" class="st63" width="25.3" height="24.5"/>
	</g>
</g>
<g>
	<defs>
		<path id="SVGID_129_" d="M350.5,8.7l-3.5,7.5l8.7,5.7l5.2-7.9v-0.9v0.4c-0.9-0.4-4.8-1.8-5.6-2.2L350.5,8.7z M356.2,23.2
			c-0.4,0-0.4,0-0.9,0l-1.7-1.3l-6.9-4.4c-0.4-0.4-0.9-0.9-0.4-1.3l3-7.5c0.4-0.4,0.9-0.9,1.7-0.4l5.6,3.1c0.4,0.4,3.5,1.3,5.2,2.2
			c0.4,0,0.4,0.4,0.9,0.9c0,0.4,0,0.9,0,0.9l-5.2,7.9C357,22.8,356.6,23.2,356.2,23.2z"/>
	</defs>
	<clipPath id="SVGID_130_">
		<use xlink:href="#SVGID_129_"  style="overflow:visible;"/>
	</clipPath>
	<g class="st64">
		<defs>
			<rect id="SVGID_131_" x="-633" y="-205" width="1440" height="3439"/>
		</defs>
		<clipPath id="SVGID_132_">
			<use xlink:href="#SVGID_131_"  style="overflow:visible;"/>
		</clipPath>
		<rect x="341" y="3.1" class="st65" width="26.6" height="25.1"/>
	</g>
</g>
<g>
	<defs>
		<path id="SVGID_133_" d="M327.9,26.7l-0.4,0.9c0,0.4-0.4,0.4-0.9,0.4l-8.3-4.3c-0.4,0-0.4-0.9,0-0.9c0.9-1.3,3.5-3.5,3.9-4.3
			l3.5-5.2c0-0.4,0.4-0.4,0.9,0l6.1,5.2c0.4,0,0.4,0.4,0,0.9l-4.3,6L327.9,26.7z"/>
	</defs>
	<clipPath id="SVGID_134_">
		<use xlink:href="#SVGID_133_"  style="overflow:visible;"/>
	</clipPath>
	<g class="st66">
		<defs>
			<rect id="SVGID_135_" x="-633" y="-205" width="1440" height="3439"/>
		</defs>
		<clipPath id="SVGID_136_">
			<use xlink:href="#SVGID_135_"  style="overflow:visible;"/>
		</clipPath>
		<rect x="313" y="8" class="st67" width="25" height="25"/>
	</g>
</g>
<g>
	<defs>
		<path id="SVGID_137_" d="M391,61l0.4-3.8c0,0,10.8,0.4,14.2,0c6-0.4,12.5-1.2,12.5-1.2l0.9,3.3c0,0-6.9,1.2-15.1,1.7
			C400.9,61,391,61,391,61z M428.4,47.4c0-0.9-0.9-1.8-1.7-1.3c-4.3,0.4-14.3,1.8-30.3,2.7c-5.6,0.4-12.1,0.4-15.6,0.4
			c-0.9,0-1.7,0.9-1.7,1.8c0,3.1,0,7.5,0,9.3c0,2.7,0,8,0,11.5c0,0.9,0.9,1.8,1.7,1.8c5.2,0,17.8,0.4,22.5,0.4
			c14.7-0.9,23-2.7,26.4-3.5c0.9,0,1.3-0.9,1.3-1.8L428.4,47.4z"/>
	</defs>
	<clipPath id="SVGID_138_">
		<use xlink:href="#SVGID_137_"  style="overflow:visible;"/>
	</clipPath>
	<g class="st68">
		<defs>
			<rect id="SVGID_139_" x="-633" y="-205" width="1440" height="3439"/>
		</defs>
		<clipPath id="SVGID_140_">
			<use xlink:href="#SVGID_139_"  style="overflow:visible;"/>
		</clipPath>
		<rect x="374" y="41" class="st69" width="62" height="38"/>
	</g>
</g>
<g>
	<defs>
		<path id="SVGID_141_" d="M400.2,15.7l0.4,3l-12.3,0.4l-0.4-3L400.2,15.7z M401.5,27l-12.3,0.4l-0.4-3L401,24L401.5,27z
			 M401.9,36.1l-12.3,0.4l-0.4-3l12.3-0.4L401.9,36.1z M398,45.1c14.9-0.4,23.7-1.3,29-2.2c0.9,0,1.3-0.9,0.9-1.3l-0.4-6.1
			c0-0.9-0.9-1.3-1.3-1.3l-12.7,0.9l-0.4-3.5l13.2-0.9l-0.4-5.6l-13.2,0.9l-0.4-3l13.2-0.9v-5.6L412,17.5l-0.4-3l14.1-0.9
			c0.9,0,1.3-0.4,1.3-1.3c0-2.2,0-5.2-0.9-7.8c-0.4-0.9-0.9-1.3-1.8-0.9c-5.7,1.7-12.3,1.7-12.7,1.7h-0.9l-0.4-3.5
			c-1.3,0-3.5,0.4-6.1,0.9c-0.9,0-4.4,0.4-6.1,0.4l0.9,3.5l-9.7,0.4l2.2-2.2l-8.8-4.8c-0.9-0.4-1.3,0-1.8,0.4
			c-1.8,3-5.3,8.6-7.9,12.1c-1.8,1.7-4.8,5.6-6.6,7.8c-0.4,0.4-0.4,1.3,0,1.7l5.7,6.1c0.4,0.4,1.8,0.4,2.2,0l3.5-4.8v21.2
			c0,0.9,0.4,1.3,1.3,1.3C385.2,46,392.7,45.6,398,45.1z"/>
	</defs>
	<clipPath id="SVGID_142_">
		<use xlink:href="#SVGID_141_"  style="overflow:visible;"/>
	</clipPath>
	<g class="st70">
		<defs>
			<rect id="SVGID_143_" x="-633" y="-205" width="1440" height="3439"/>
		</defs>
		<clipPath id="SVGID_144_">
			<use xlink:href="#SVGID_143_"  style="overflow:visible;"/>
		</clipPath>
		<rect x="361" y="-5" class="st71" width="72" height="56"/>
	</g>
</g>
<g>
	<defs>
		<path id="SVGID_145_" d="M246.8,100.5c2.6,0.4,7.9-0.9,19.2-5.7c24.5-9.6,30.2-14.5,31.5-15.8l0.4-0.4l-0.4-0.4
			c-0.9-0.9-3.5-3.1-4.8-5.7c-0.4-0.4-0.9-1.3-0.9-1.8l-0.4-0.4l-0.4,0.4c-1.3,0.9-3.5,2.2-8.3,3.5c-1.8,0.4-3.9,1.3-6.6,2.2
			c-4.8,1.8-11.8,3.9-18.4,5.7c-6.6,1.8-6.6,1.8-11.4,3.1c-0.9,0-2.2,0.4-3.9,0.4c-0.9,0-1.8,0-2.6,0.4h-0.9l0.4,0.9
			c0.4,0.9,0.9,2.6,2.2,4.8C243.3,96.6,246.8,100.5,246.8,100.5z"/>
	</defs>
	<clipPath id="SVGID_146_">
		<use xlink:href="#SVGID_145_"  style="overflow:visible;"/>
	</clipPath>
	<g class="st72">
		<defs>
			<rect id="SVGID_147_" x="-633" y="-205" width="1440" height="3439"/>
		</defs>
		<clipPath id="SVGID_148_">
			<use xlink:href="#SVGID_147_"  style="overflow:visible;"/>
		</clipPath>
		<rect x="233.9" y="65.3" class="st73" width="69.1" height="40.3"/>
	</g>
</g>
<g>
	<defs>
		<path id="SVGID_149_" d="M274.8,63.3c0,0-3.5,2.2-15.3,5.3c-0.9,0-1.8,0.4-2.2,0.4c-2.2,0.4-3.5,0.9-4.4,0.9v-2.2h0.9
			c0.4,0,4.4-0.4,7.9-1.3c3.5-0.9,10.1-3.1,12.7-3.9l0.9-0.4c0,0.4,0.4,0.9,0.4,1.3H274.8z M253.8,60.6l-1.8,0.4l-0.4-2.2h0.9
			c0.4,0,2.6,0,5.7-0.9c7.4-1.3,11.8-2.6,13.1-3.1l0.9-0.4v0.4c0,0,0,0.4,0.4,1.3v0.4c-0.4,0-7.4,1.8-14,3.1
			C254.7,60.6,254.2,60.6,253.8,60.6z M287.5,68.1c-1.3-2.2-3.9-6.6-4.8-11.8c-0.9-3.5-1.3-6.1-2.2-8.3l-0.4-1.3l1.8,0.4l1.8,0.9
			l3.9-11c-2.2,0-4.8-0.4-7.9-1.3c-0.9-0.4-2.6-0.9-7-3.1h-0.9l-6.1,6.1l1.8,1.3c1.8,1.3,3.5,2.2,5.2,3.5c0.4,0.4,0.9,0.4,0.9,0.4
			c0.4,0.4,0.9,0.4,1.8,0.9h0.4l-3.1,0.9c-3.9,1.3-5.2,1.8-16.6,3.9c-2.2,0.4-4.8,0.4-6.6,0.4c-0.9,0-3.9,0-3.9,0
			c1.3-1.8,3.5-4.8,4.8-7c0.4-0.9,0.9-2.2,1.8-3.5l-9.6-3.5l9.2-1.8c0,0,0.4,0.9,0.4,1.8c0,0.4,0.4,0.9,0.4,1.3s0.4,0.4,0.4,0.9v0.4
			c0.4,0.9,0.9,1.8,1.3,3.1c0.9,2.6,1.8,4.4,2.2,5.3v0.4h0.4c0.9,0,2.2-0.4,3.9-0.9c3.5-1.3,6.1-2.2,7.4-3.1l0.4-0.4l-0.4-0.4
			c-0.4-0.4-0.9-1.3-1.3-2.2l-1.8-2.2c-0.4-0.4-1.3-1.8-1.3-2.6c-0.4-0.9-0.9-2.6-0.9-2.6l7.9-0.9l2.2-0.4c3.9-0.4,6.6-1.3,8.3-2.2
			l0.4-0.4l-0.4-0.4c-0.4-0.9-1.3-2.2-1.8-3.9c-0.4-0.9-0.4-2.2-0.9-3.5v-0.4h-0.4c-1.8,0.4-4.8,1.3-10.1,1.8
			c-3.1,0-4.8,0.4-4.8,0.4H263v-0.4c-0.4-1.8-0.9-3.9-0.9-5.7v-0.9l-0.9,0.4c-1.3,0.4-3.5,1.3-7,2.2c-1.8,0.4-3.1,0.9-3.9,1.3h-0.4
			l0.4,3.5h-0.4c-0.9,0-5.7,0.9-14.9,1.3c-1.3,0-2.2,0-3.1-0.4h-0.9v0.9c0,1.8,0,4.4,0,6.1s0.9,4.8,0.9,6.1v0.4l4.8-0.4
			c0.4,0,0.9,0,1.3,0h1.8l-0.9,1.3c-0.9,1.8-1.3,2.2-1.8,3.1l-0.9,0.9c-2.2,2.6-4.4,4.8-6.1,5.7l-1.8,1.3l1.3,1.3
			c1.8,1.8,3.1,2.6,3.9,3.1c2.2,1.8,3.1,2.2,4.8,3.1l0.9-0.9l1.8-1.8l0.4,0.9c0.4,3.5,0.9,8.3,1.8,13.1c0.9,7,2.2,11.4,2.6,12.7v0.4
			h1.3c3.1-0.4,10.1-1.8,16.6-3.9c10.5-3.5,16.6-6.1,19.7-7.4c1.3-0.4,2.6-0.9,3.5-1.3l0.9-0.4L287.5,68.1z"/>
	</defs>
	<clipPath id="SVGID_150_">
		<use xlink:href="#SVGID_149_"  style="overflow:visible;"/>
	</clipPath>
	<g class="st74">
		<defs>
			<rect id="SVGID_151_" x="-633" y="-205" width="1440" height="3439"/>
		</defs>
		<clipPath id="SVGID_152_">
			<use xlink:href="#SVGID_151_"  style="overflow:visible;"/>
		</clipPath>
		<rect x="223.4" y="10.9" class="st75" width="69.5" height="75.7"/>
	</g>
</g>
<g>
	<defs>
		<path id="SVGID_153_" d="M88.2,132.5c-3.9,2.2-8.8,4.4-11,5.7c0.4,1.3,2.2,3.9,3.9,6.6l0.4,0.4c0.9,1.3,1.8,3.1,3.9,4.8
			c2.2-1.7,8.3-4.8,19.3-11.4l2.6-1.7l5.7,12.7l10.5-8.3l-5.7-11.4l0.9-0.9c11-7,15.8-10.5,17.1-11.8c-0.4-0.4-1.8-1.3-4.8-5.7
			c-0.4-0.4-2.2-2.6-2.6-3.5c-1.3,0.9-3.9,2.6-8.3,5.2c-3.1,1.7-3.9,2.2-7.5,3.9l-1.3,0.9l-2.2-4.4c0,0,3.5-2.2,4.4-2.6
			c5.7-3.5,10.5-7,10.5-7l-6.6-8.3c0,0-4.8,3.5-6.6,4.4c-2.2,1.3-7,3.5-7,3.5l-3.9-7l-11.8,6.1l3.9,7l-8.8,4.8L79.9,102l3.5-1.7
			C106.6,88,107.9,85.4,108.8,84c-1.3-0.9-2.2-2.2-3.5-4.8c-1.3-1.7-2.6-4.8-3.1-5.2c-1.8,1.3-6.1,4.4-10.1,7
			c-1.8,0.9-2.6,1.7-4.4,2.6c-2.6,1.3-5.3,2.6-9.2,4.4l-0.9,0.4L75,79.7l-9.6,6.1l1.8,8.3l-1.3,0.4c-2.2,0.9-3.9,1.7-5.3,2.2
			c-2.2,0.9-4.8,1.7-6.6,2.2c0.4,0.9,0.4,1.3,1.8,3.5c1.8,3.1,3.5,6.1,7,9.2c0.9-0.4,3.1-1.3,5.3-2.6l0.9-0.4l4.8,19.7l3.9,2.2
			l19.7-10l2.2,4.8C100.5,125.1,94.3,129,88.2,132.5z"/>
	</defs>
	<clipPath id="SVGID_154_">
		<use xlink:href="#SVGID_153_"  style="overflow:visible;"/>
	</clipPath>
	<g class="st76">
		<defs>
			<rect id="SVGID_155_" x="-633" y="-205" width="1440" height="3439"/>
		</defs>
		<clipPath id="SVGID_156_">
			<use xlink:href="#SVGID_155_"  style="overflow:visible;"/>
		</clipPath>
		<rect x="49" y="69" class="st77" width="92" height="86"/>
	</g>
</g>
</svg>
