<?xml version="1.0" encoding="utf-8"?>
<!-- Generator: Adobe Illustrator 21.0.0, SVG Export Plug-In . SVG Version: 6.00 Build 0)  -->
<svg version="1.1" id="Layer_1" xmlns="http://www.w3.org/2000/svg" xmlns:xlink="http://www.w3.org/1999/xlink" x="0px" y="0px"
	 viewBox="0 0 30 23" style="enable-background:new 0 0 30 23;" xml:space="preserve">
<g>
	<g>
		<path d="M7.1,12h0.5c1.3,0,2.5,0.5,3.6,1.5c1.1,1,1.6,2.3,1.6,3.8c0,1.5-0.5,2.7-1.6,3.7c-1.1,1-2.4,1.5-4,1.5
			c-1.7,0-3.1-0.7-4.3-2.1c-1.1-1.4-1.7-3.3-1.7-5.9c0-2.3,0.5-4.5,1.5-6.5c1-2,2.2-3.6,3.7-4.8s2.7-1.8,3.8-1.8
			c0.8,0,1.3,0.2,1.8,0.7s0.6,1,0.6,1.7c0,1-0.5,1.8-1.4,2.3C10,6.8,9,7.6,8.3,8.6C7.6,9.5,7.2,10.6,7.1,12z M22.6,12h0.5
			c1.3,0,2.5,0.5,3.6,1.5c1.1,1,1.6,2.3,1.6,3.8c0,1.5-0.5,2.7-1.6,3.7c-1.1,1-2.4,1.5-4,1.5c-1.7,0-3.2-0.7-4.3-2.1
			s-1.7-3.4-1.7-5.9c0-1.8,0.3-3.5,0.9-5.1c0.6-1.6,1.3-3,2.3-4.2c0.9-1.2,1.9-2.1,3-2.8c1.1-0.7,2-1,2.9-1c0.8,0,1.4,0.2,1.8,0.7
			c0.4,0.4,0.6,1,0.6,1.7c0,1.1-0.5,1.8-1.4,2.3c-1.3,0.7-2.3,1.5-2.9,2.4C23.1,9.5,22.8,10.6,22.6,12z"/>
	</g>
</g>
</svg>
